<?xml version="1.0" standalone="no"?>
<!DOCTYPE svg PUBLIC "-//W3C//DTD SVG 1.1//EN" "http://www.w3.org/Graphics/SVG/1.1/DTD/svg11.dtd" >
<svg>
<metadata>
Created by FontForge 20110222 at Thu Nov  7 19:02:54 2013
 By Orthosie Webhosting
 (c) Copyright 1997 International Typeface Corporation. All rights reserved.
</metadata>
<defs>
<font id="OfficinaSerifOSITCTTBoldIt" horiz-adv-x="500" >
  <font-face 
    font-family="OfficinaSerifOSITCTTBoldIt"
    font-weight="700"
    font-style="italic"
    font-stretch="normal"
    units-per-em="1000"
    panose-1="0 0 7 0 0 0 0 0 0 0"
    ascent="800"
    descent="-200"
    x-height="494"
    cap-height="686"
    bbox="-196 -259 1114 943"
    underline-thickness="79"
    underline-position="-64"
    slope="-12"
    unicode-range="U+0020-F002"
  />
<missing-glyph 
d="M63 0v747h375v-747h-375zM125 63h250v622h-250v-622z" />
    <glyph glyph-name=".notdef" 
d="M63 0v747h375v-747h-375zM125 63h250v622h-250v-622z" />
    <glyph glyph-name=".null" horiz-adv-x="0" 
 />
    <glyph glyph-name="glyph2" horiz-adv-x="206" 
 />
    <glyph glyph-name="space" unicode=" " horiz-adv-x="206" 
 />
    <glyph glyph-name="exclam" unicode="!" horiz-adv-x="352" 
d="M329 675q0 -5 -2 -12l-109 -407q-4 -14 -18 -14h-60q-17 0 -17 12l2 13l63 401q3 18 18 18h106q17 0 17 -11zM215 66q0 -33 -23.5 -56.5t-56.5 -23.5t-56.5 23.5t-23.5 56.5q0 34 23.5 57t57.5 23q32 0 55.5 -23.5t23.5 -56.5z" />
    <glyph glyph-name="quotedbl" unicode="&#x22;" horiz-adv-x="519" 
d="M490 676q0 -4 -3 -14l-74 -235q-4 -13 -18 -13h-41q-17 0 -17 11q0 1 2 15l32 231q2 15 18 15h84q17 0 17 -10zM323 675q0 -3 -3 -13l-74 -235q-4 -13 -18 -13h-41q-17 0 -17 11q0 1 2 15l32 231q2 15 18 15h84q17 0 17 -11z" />
    <glyph glyph-name="numbersign" unicode="#" horiz-adv-x="518" 
d="M531 489q0 -6 -2 -15l-11 -51q-3 -14 -18 -14h-65l-55 -173h52q17 0 17 -11q0 -1 -3 -15l-11 -51q-3 -14 -18 -14h-66l-59 -184q-4 -13 -18 -13h-50q-17 0 -17 11q0 3 4 16l54 170h-104l-59 -184q-4 -13 -18 -13h-50q-17 0 -17 11q0 3 4 16l54 170h-43q-17 0 -17 11
q0 6 2 15l11 51q3 14 18 14h58l55 173h-44q-17 0 -17 11q0 6 2 15l11 51q3 14 18 14h59l55 173q4 13 18 13h50q17 0 17 -11q0 -3 -4 -16l-50 -159h104l55 173q4 13 18 13h50q17 0 17 -11q0 -3 -4 -16l-50 -159h50q17 0 17 -11zM349 409h-104l-55 -173h104z" />
    <glyph glyph-name="dollar" unicode="$" horiz-adv-x="519" 
d="M515 623q0 -3 -4 -11l-37 -71q-4 -8 -12 -8q-5 0 -13 6q-41 32 -94 38l-40 -188q76 -37 104.5 -72.5t28.5 -94.5q0 -89 -57.5 -148t-155.5 -71l-12 -58q-3 -14 -18 -14h-22q-17 0 -17 12q0 4 2 14l9 44q-64 4 -131 34q-28 13 -28 20q0 4 3 10l38 76q4 8 11 8q3 0 15 -6
q56 -39 116 -44l44 203q-56 28 -79 47q-58 48 -58 126q0 56 29.5 102t80.5 70q41 19 102 26l9 45q3 14 18 14h23q17 0 17 -11q0 -6 -3 -15l-6 -33q44 -3 90.5 -20t46.5 -30zM304 577q-84 -23 -84 -93q0 -45 49 -72zM335 205q0 45 -45 76l-39 -180q84 24 84 104z" />
    <glyph glyph-name="percent" unicode="%" horiz-adv-x="834" 
d="M767 217q0 -114 -72 -186q-46 -46 -117 -46q-56 0 -88.5 33t-32.5 89q0 116 72 187q47 46 119 46q55 0 87 -33.5t32 -89.5zM693 669q0 -7 -6 -17l-429 -682q-6 -10 -18 -10h-62q-17 0 -17 9q0 7 6 17l429 682q6 10 18 10h62q17 0 17 -9zM404 539q0 -114 -72 -186
q-46 -46 -117 -46q-55 0 -87.5 33t-32.5 89q0 116 72 188q46 46 119 46q54 0 86 -33.5t32 -90.5zM674 219q0 44 -39 44q-24 0 -40 -18q-19 -22 -32 -62t-13 -78q0 -43 39 -43q25 0 40 18q45 53 45 139zM311 542q0 44 -39 44q-24 0 -40 -18q-44 -49 -44 -139q0 -44 38 -44
q42 0 67 61q18 46 18 96z" />
    <glyph glyph-name="ampersand" unicode="&#x26;" horiz-adv-x="630" 
d="M606 334q0 -11 -13 -49q-30 -88 -81 -152l54 -80q4 -6 4 -11q0 -7 -8 -13l-66 -48q-5 -5 -11 -5q-7 0 -15 12l-40 62q-53 -42 -99 -59t-107 -17q-91 0 -140 42t-49 119q0 75 42.5 128t143.5 106q-35 61 -47 93.5t-12 69.5q0 79 58.5 127t156.5 48q76 0 118 -35.5
t42 -98.5q0 -119 -168 -220l79 -122q29 43 50 121q3 13 12 13q3 0 11 -2l72 -18q13 -3 13 -11zM418 557q0 55 -54 55q-36 0 -60.5 -22.5t-24.5 -55.5q0 -39 42 -108q97 56 97 131zM373 138l-103 157q-58 -32 -80 -59t-22 -65q0 -41 21.5 -65t59.5 -24q64 0 124 56z" />
    <glyph glyph-name="quotesingle" unicode="'" horiz-adv-x="352" 
d="M323 675q0 -3 -3 -13l-74 -235q-4 -13 -18 -13h-41q-17 0 -17 11q0 1 2 15l32 231q2 15 18 15h84q17 0 17 -11z" />
    <glyph glyph-name="parenleft" unicode="(" horiz-adv-x="463" 
d="M513 700q0 -7 -16 -25q-101 -112 -153 -198q-106 -173 -106 -373q0 -169 72 -297q7 -12 7 -19q0 -11 -11 -17l-51 -27q-4 -3 -11 -3q-8 0 -12.5 6t-21.5 38q-98 182 -98 338q0 184 100 353q56 95 176 218l39 41q17 16 26 16q6 0 10 -3l44 -37q6 -5 6 -11z" />
    <glyph glyph-name="parenright" unicode=")" horiz-adv-x="463" 
d="M346 370q0 -187 -99 -354q-52 -89 -177 -218l-38 -39q-18 -18 -27 -18q-6 0 -10 3l-44 37q-6 3 -6 10q0 8 17 26q30 32 81.5 99t70.5 99q106 174 106 374q0 159 -72 296q-7 13 -7 19q0 11 11 17l51 27q6 3 11 3q8 0 12 -5.5t22 -38.5q98 -182 98 -337z" />
    <glyph glyph-name="asterisk" unicode="*" horiz-adv-x="519" 
d="M502 516q0 -9 -16 -11l-127 -17l93 -92q6 -6 6 -11t-8 -11l-56 -41q-7 -5 -11 -5q-6 0 -11 7l-58 120l-58 -120q-3 -7 -10 -7q-3 0 -12 5l-56 41q-7 4 -7 11q0 5 6 11l93 92l-128 17q-15 2 -15 12q0 4 3 13l20 60q4 13 12 13q4 0 14 -5l111 -58l-22 120q-2 11 -2 14
q0 12 17 12h68q17 0 17 -11q0 -4 -2 -15l-21 -120l111 58q10 5 14 5q8 0 12 -13l19 -60q4 -13 4 -14z" />
    <glyph glyph-name="plus" unicode="+" horiz-adv-x="518" 
d="M486 223q0 -12 -4 -14.5t-13 -2.5h-159v-160q0 -12 -4 -14.5t-13 -2.5h-68q-12 0 -14.5 4t-2.5 13v160h-160q-12 0 -14.5 4t-2.5 13v68q0 12 4 14.5t13 2.5h160v159q0 12 4 14.5t13 2.5h68q12 0 14.5 -4t2.5 -13v-159h159q12 0 14.5 -4t2.5 -13v-68z" />
    <glyph glyph-name="comma" unicode="," horiz-adv-x="296" 
d="M219 114q0 -5 -7 -15l-170 -235q-6 -8 -12 -8q-5 0 -15 6l-36 22q-10 6 -10 11t6 17l101 202q5 11 18 11h107q18 0 18 -11z" />
    <glyph glyph-name="hyphen" unicode="-" horiz-adv-x="334" 
d="M304 300l-1 -12l-17 -78q-3 -14 -18 -14h-223q-17 0 -17 12q0 -1 3 14l15 75q3 14 18 14h223q18 0 17 -11z" />
    <glyph glyph-name="hyphen" unicode="&#x2010;" horiz-adv-x="334" 
d="M304 300l-1 -12l-17 -78q-3 -14 -18 -14h-223q-17 0 -17 12q0 -1 3 14l15 75q3 14 18 14h223q18 0 17 -11z" />
    <glyph glyph-name="period" unicode="." horiz-adv-x="296" 
d="M201 77q0 -37 -26.5 -64t-64.5 -27q-37 0 -64 27t-27 64q0 38 27 64.5t65 26.5q37 0 63.5 -27t26.5 -64z" />
    <glyph glyph-name="slash" unicode="/" horiz-adv-x="482" 
d="M526 704q0 -5 -6 -15l-514 -881q-8 -13 -23 -13h-65q-17 0 -17 11q0 5 6 15l513 881q8 13 24 13h65q17 0 17 -11z" />
    <glyph glyph-name="zero" unicode="0" horiz-adv-x="518" 
d="M513 415q0 -200 -105 -331q-37 -47 -93 -74t-115 -27q-81 0 -130 47t-49 148q0 209 110 339q81 96 204 96q79 0 128.5 -46.5t49.5 -151.5zM388 413q0 93 -73 93q-51 0 -85 -47q-38 -52 -61 -128t-23 -150q0 -91 72 -91q54 0 90.5 52.5t58 126.5t21.5 144z" />
    <glyph glyph-name="one" unicode="1" horiz-adv-x="518" 
d="M419 584q0 -5 -2 -14l-102 -480h74q15 0 15 -11l-3 -15l-10 -49q-3 -15 -18 -15h-289q-15 0 -15 11q0 6 2 15l11 50q3 14 18 14h101l79 371l-100 -53q-13 -7 -18 -7q-6 0 -11 12l-15 37q-5 12 -5 17t10 11l180 111q10 6 22 6h59q17 0 17 -11z" />
    <glyph glyph-name="two" unicode="2" horiz-adv-x="518" 
d="M498 472q0 -85 -60 -147q-40 -41 -150 -100q-66 -35 -89 -57.5t-32 -60.5h239q17 0 17 -11q0 -1 -3 -15l-14 -66q-3 -15 -18 -15h-360q-12 0 -12 8q0 24 23 94q21 65 65 109.5t141 99.5q85 49 102 68q26 30 26 67q0 63 -59 63q-66 0 -117 -90q-11 -20 -21 -20q-4 0 -10 3
l-56 28q-9 4 -9 11q0 16 31 62q74 110 208 110q71 0 114.5 -38.5t43.5 -102.5z" />
    <glyph glyph-name="three" unicode="3" horiz-adv-x="519" 
d="M467 472q0 -62 -33.5 -113t-89.5 -73q78 -40 78 -134q0 -105 -69 -174t-192 -69q-92 0 -157 35q-21 11 -21 17q0 2 4 11l33 72q3 9 10 9q4 0 12 -5q59 -36 127 -36q60 0 93 32q42 41 42 101q0 78 -110 78h-32q-17 0 -17 11q0 2 3 15l14 67q3 15 18 15h38q69 0 102 39
q29 34 29 78q0 62 -62 62q-48 0 -110 -58q-6 -6 -11 -6q-4 0 -8 5l-49 45q-5 5 -5 9q0 7 23 31q75 77 180 77q73 0 116.5 -38t43.5 -103z" />
    <glyph glyph-name="four" unicode="4" horiz-adv-x="519" 
d="M464 140q0 -1 -3 -15l-12 -57q-3 -14 -17 -14h-64l-29 -136q-3 -14 -17 -14h-79q-17 0 -17 11q0 1 3 15l26 124h-244q-17 0 -17 12l3 14l20 96q1 6 8 17l327 410q6 8 11 8q3 0 13 -5l63 -31q12 -6 12 -13q0 -4 -6 -11l-320 -400h152l57 171q4 13 18 13h56q17 0 17 -11
q0 -1 -3 -15l-33 -158h58q17 0 17 -11z" />
    <glyph glyph-name="five" unicode="5" horiz-adv-x="519" 
d="M496 585l-2 -16l-14 -64q-3 -14 -18 -14h-211l-50 -158q43 25 96 25q72 0 117 -44.5t45 -115.5q0 -121 -88 -208q-82 -81 -208 -81q-56 0 -114 14.5t-58 28.5q0 4 3 12l28 72q5 9 12 9q3 0 12 -4q65 -29 121 -29q76 0 125 48t49 122q0 79 -78 79q-57 0 -112 -50
q-8 -7 -14 -7q-5 0 -8 2l-53 18q-16 5 -16 13q0 3 5 15l101 330q4 13 18 13h295q17 0 17 -10z" />
    <glyph glyph-name="six" unicode="6" horiz-adv-x="519" 
d="M531 654q0 -4 -3 -12l-33 -65q-5 -10 -12 -10q-4 0 -17 6q-22 10 -55 10q-123 0 -198 -167q61 53 127 53q64 0 100.5 -45t36.5 -124q0 -126 -66 -216q-74 -101 -194 -101q-166 0 -166 187q0 103 40 215.5t102 186.5q96 114 229 114q39 0 74 -10.5t35 -21.5zM359 283
q0 83 -69 83q-52 0 -86.5 -56.5t-34.5 -142.5q0 -81 66 -81q52 0 88 57t36 140z" />
    <glyph glyph-name="seven" unicode="7" horiz-adv-x="519" 
d="M515 584q0 -6 -2 -15l-5 -23q-3 -13 -8 -19l-352 -606q-6 -10 -12 -10t-15 2l-77 18q-15 4 -15 11q0 5 6 15l327 528h-246q-17 0 -17 11q0 1 3 15l15 70q3 14 17 14h364q17 0 17 -11z" />
    <glyph glyph-name="eight" unicode="8" horiz-adv-x="519" 
d="M519 537q0 -117 -143 -183q95 -52 95 -150q0 -92 -71.5 -156.5t-192.5 -64.5q-94 0 -145 39.5t-51 113.5q0 141 176 216q-79 49 -79 138q0 88 62.5 142t163.5 54q82 0 133.5 -41.5t51.5 -107.5zM396 518q0 69 -73 69q-43 0 -69.5 -26.5t-26.5 -67.5q0 -57 67 -94
q102 40 102 119zM350 195q0 56 -42 85q-10 7 -44 24q-71 -31 -101 -62.5t-30 -75.5q0 -80 98 -80q55 0 87 29.5t32 79.5z" />
    <glyph glyph-name="nine" unicode="9" horiz-adv-x="518" 
d="M484 425q0 -102 -38.5 -213t-99.5 -186q-95 -117 -231 -117q-35 0 -64 8.5t-29 19.5q0 3 3 12l22 67q3 10 11 10q4 0 18 -5q25 -9 49 -9q59 0 112.5 47t90.5 131q-63 -62 -133 -62q-64 0 -100.5 44.5t-36.5 121.5q0 127 66 218q73 101 194 101q166 0 166 -188zM366 434
q0 76 -66 76q-45 0 -73 -38q-51 -68 -51 -165q0 -76 67 -76q45 0 72 35q51 67 51 168z" />
    <glyph glyph-name="colon" unicode=":" horiz-adv-x="297" 
d="M272 409q0 -37 -26.5 -64t-64.5 -27q-37 0 -64 27t-27 64q0 38 27 64.5t65 26.5q37 0 63.5 -27t26.5 -64zM201 77q0 -37 -26.5 -64t-64.5 -27q-37 0 -64 27t-27 64q0 38 27 64.5t65 26.5q37 0 63.5 -27t26.5 -64z" />
    <glyph glyph-name="semicolon" unicode=";" horiz-adv-x="297" 
d="M292 409q0 -37 -26.5 -64t-64.5 -27q-37 0 -64 27t-27 64q0 38 27 64.5t65 26.5q37 0 63.5 -27t26.5 -64zM219 114q0 -5 -7 -15l-170 -235q-6 -8 -12 -8q-5 0 -15 6l-36 22q-10 6 -10 11t6 17l101 202q5 11 18 11h107q18 0 18 -11z" />
    <glyph glyph-name="less" unicode="&#x3c;" horiz-adv-x="514" 
d="M501 61l-446 227v110l446 227v-130l-307 -152l307 -152v-130z" />
    <glyph glyph-name="equal" unicode="=" horiz-adv-x="519" 
d="M486 302q0 -12 -4 -14.5t-13 -2.5h-421q-12 0 -14.5 4t-2.5 13v67q0 12 4 14.5t13 2.5h421q12 0 14.5 -4t2.5 -13v-67zM487 144q0 -12 -4 -14.5t-13 -2.5h-422q-12 0 -14.5 4t-2.5 13v67q0 12 4 14.5t13 2.5h422q12 0 14.5 -4t2.5 -13v-67z" />
    <glyph glyph-name="greater" unicode="&#x3e;" horiz-adv-x="514" 
d="M501 288l-446 -227v130l307 152l-307 152v130l446 -227v-110z" />
    <glyph glyph-name="question" unicode="?" horiz-adv-x="463" 
d="M483 551q0 -82 -55.5 -141.5t-148.5 -75.5l-16 -75q-3 -14 -17 -14h-81q-15 0 -15 11q0 1 3 15l25 120q3 15 22 19q87 20 117 48t30 68q0 60 -68 60q-39 0 -106 -26q-8 -4 -16 -4q-4 0 -9 9l-28 71q-4 7 -4 12q0 8 21 17q90 38 175 38q77 0 124 -41.5t47 -110.5zM249 66
q0 -33 -23.5 -56.5t-56.5 -23.5t-56.5 23.5t-23.5 56.5q0 34 23.5 57t57.5 23q32 0 55.5 -24t23.5 -56z" />
    <glyph glyph-name="at" unicode="@" horiz-adv-x="1019" 
d="M937 356q0 -130 -80 -218.5t-197 -88.5q-80 0 -93 69q-52 -69 -117 -69q-44 0 -68.5 31t-24.5 86q0 133 84 221q41 43 98 43q48 0 79 -34l5 11q5 11 15 11h67q12 0 12 -11q0 -4 -1 -9l-46 -214q-2 -9 -2 -26q0 -30 35 -30q45 0 83 39q28 29 46 80.5t18 103.5
q0 110 -71.5 173.5t-196.5 63.5q-166 0 -268 -105q-54 -56 -85 -135.5t-31 -163.5q0 -136 85 -214q78 -72 224 -72q163 0 288 67q15 6 19 6q7 0 10 -8l16 -40q3 -8 3 -12q0 -7 -15 -16q-53 -32 -141.5 -51.5t-182.5 -19.5q-192 0 -290 95q-106 103 -106 269q0 97 39 189.5
t108 157.5q134 127 332 127q178 0 271 -96q79 -82 79 -210zM596 334q-23 24 -49 24q-28 0 -47 -38q-13 -26 -23.5 -73t-10.5 -81q0 -39 25 -39q33 0 59 36q13 19 22 59z" />
    <glyph glyph-name="A" unicode="A" horiz-adv-x="556" 
d="M536 82q0 -10 -2 -14l-11 -53q-3 -15 -18 -15h-217q-15 0 -15 11q0 5 2 14l12 53q3 15 17 15h51l-5 89h-179l-39 -89h49q15 0 15 -11q0 -7 -2 -16l-11 -51q-3 -15 -18 -15h-221q-15 0 -15 11q0 3 2 12l12 55q3 15 17 15h42l296 582q6 11 18 11h96q17 0 18 -16l52 -577h39
q15 0 15 -11zM344 271l-9 175q-2 39 -2 103q-26 -65 -44 -103l-83 -175h138z" />
    <glyph glyph-name="B" unicode="B" horiz-adv-x="574" 
d="M561 536q0 -117 -135 -176q92 -42 92 -147q0 -61 -32 -112.5t-85.5 -76t-174.5 -24.5h-229q-15 0 -15 11q0 4 2 14l11 53q3 15 18 15h54l106 500h-51q-14 0 -14 11q0 5 2 14l12 54q3 14 17 14h224q98 0 145 -36q53 -41 53 -114zM429 524q0 63 -80 63h-53l-40 -187h43
q65 0 95 30q35 35 35 94zM385 229q0 41 -21.5 56t-79.5 15h-49l-43 -201h47q77 0 108 27q38 33 38 103z" />
    <glyph glyph-name="C" unicode="C" 
d="M549 646q0 -10 -3 -19l-25 -121q-3 -14 -18 -14h-67q-17 0 -17 11l1 9l3 11l14 67q-25 8 -49 8q-77 0 -125 -83q-34 -58 -54.5 -139.5t-20.5 -157.5q0 -65 24 -92.5t82 -27.5q21 0 44 5l18 82q3 14 18 14h66q17 0 17 -11q1 -3 -2 -15l-29 -136q-3 -13 -17 -20
q-73 -34 -156 -34q-200 0 -200 236q0 111 31 211.5t85 167.5q85 105 224 105q54 0 105 -18.5t51 -38.5z" />
    <glyph glyph-name="D" unicode="D" horiz-adv-x="611" 
d="M597 463q0 -109 -38.5 -220.5t-95.5 -168.5q-42 -41 -100 -57.5t-162 -16.5h-204q-15 0 -15 11q0 4 2 14l11 53q3 15 18 15h54l106 500h-51q-14 0 -14 11q0 5 2 14l12 54q3 14 17 14h204q66 0 98 -5q55 -9 89 -38q67 -56 67 -180zM465 464q0 77 -41 102q-26 16 -94 16
h-32l-102 -478h33q113 0 156 60q33 46 56.5 134.5t23.5 165.5z" />
    <glyph glyph-name="E" unicode="E" 
d="M553 675q0 -1 -3 -15l-32 -151q-3 -14 -18 -14h-62q-17 0 -17 11q0 1 3 15l13 61h-139l-36 -172h174q14 0 14 -11q0 -5 -2 -14l-14 -64q-3 -14 -18 -14h-176l-44 -203h143l17 81q3 14 18 14h62q17 0 17 -11q0 -1 -3 -15l-33 -158q-3 -15 -18 -15h-402q-15 0 -15 11
q0 4 2 14l11 53q3 15 18 15h54l106 500h-51q-14 0 -14 11q0 5 2 14l12 54q3 14 17 14h397q17 0 17 -11z" />
    <glyph glyph-name="F" unicode="F" horiz-adv-x="482" 
d="M551 675q0 -6 -2 -15l-32 -151q-3 -14 -18 -14h-62q-17 0 -17 11q0 6 2 15l13 61h-137l-37 -174h174q13 0 13 -11q0 -5 -2 -14l-14 -64q-3 -15 -18 -15h-175l-45 -211h61q14 0 14 -11q0 -1 -3 -16l-10 -51q-3 -15 -18 -15h-241q-15 0 -15 11q0 4 2 14l11 53q3 15 18 15
h54l106 500h-51q-14 0 -14 11q0 5 2 14l12 54q3 14 17 14h395q17 0 17 -11z" />
    <glyph glyph-name="G" unicode="G" horiz-adv-x="593" 
d="M597 359l-3 -15l-11 -52q-3 -14 -18 -14h-52l-46 -219q-4 -18 -27 -29q-97 -47 -186 -47q-93 0 -141 47q-63 61 -63 182q0 97 28.5 197t74.5 162q98 132 256 132q58 0 111 -18t53 -38q0 -8 -2 -14l-27 -129q-3 -14 -18 -14h-66q-18 0 -18 11q0 4 1 6l2 9l16 73
q-25 12 -61 12q-92 0 -147 -97q-30 -53 -50.5 -138.5t-20.5 -158.5q0 -116 95 -116q39 0 78 17l36 170h-60q-15 0 -15 11q0 4 2 12l3 12l9 46q2 11 14 11h235q18 0 18 -11z" />
    <glyph glyph-name="H" unicode="H" horiz-adv-x="648" 
d="M703 675q0 -4 -2 -14l-11 -53q-3 -15 -18 -15h-54l-106 -500h52q13 0 13 -11q0 -1 -3 -16l-10 -51q-3 -15 -18 -15h-225q-15 0 -15 11l3 14l11 53q3 15 18 15h47l44 208h-191l-44 -208h45q14 0 14 -11q0 -4 -1 -8l-2 -8l-11 -51q-3 -15 -18 -15h-224q-15 0 -15 11
q0 4 2 14l11 53q3 15 18 15h54l106 500h-52q-13 0 -13 11q0 5 2 14l12 54q3 14 17 14h226q14 0 14 -11q0 -5 -1 -8l-1 -6l-12 -53q-3 -15 -18 -15h-47l-39 -184h191l39 184h-45q-13 0 -13 11q0 10 2 14l11 54q3 14 18 14h226q13 0 13 -11z" />
    <glyph glyph-name="I" unicode="I" horiz-adv-x="352" 
d="M402 675q0 -5 -2 -14l-12 -53q-3 -15 -17 -15h-60l-107 -500h58q14 0 14 -11q0 -4 -1 -8l-2 -8l-11 -51q-3 -15 -17 -15h-244q-15 0 -15 11q0 4 2 14l11 53q3 15 18 15h60l107 500h-58q-14 0 -14 11q0 5 2 14l12 54q3 14 17 14h245q14 0 14 -11z" />
    <glyph glyph-name="J" unicode="J" horiz-adv-x="426" 
d="M446 674q0 -4 -2 -13l-96 -450q-24 -113 -68 -159q-61 -64 -157 -64q-68 0 -106 37t-38 102q0 75 17 75h92q11 0 11 -6q0 -4 -1 -6q-6 -34 -6 -47q0 -50 48 -50q30 0 50 25q15 19 26 69l86 406h-141q-15 0 -15 11q0 5 2 14l12 54q3 14 18 14h253q15 0 15 -12z" />
    <glyph glyph-name="K" unicode="K" horiz-adv-x="574" 
d="M677 675q0 -6 -2 -15l-11 -52q-3 -15 -18 -15h-44l-246 -235l154 -265h33q17 0 17 -11q0 -7 -2 -16l-11 -51q-3 -15 -18 -15h-103q-16 0 -23 14l-161 304l-48 -225h52q13 0 13 -11q0 -7 -2 -16l-11 -51q-3 -15 -18 -15h-231q-15 0 -15 11q0 4 2 14l11 53q3 15 18 15h54
l106 500h-51q-14 0 -14 11q0 5 2 14l12 54q3 14 17 14h233q14 0 14 -11q0 -5 -1 -8l-2 -6l-11 -53q-3 -15 -18 -15h-54l-42 -198l278 281q10 10 23 10h101q17 0 17 -11z" />
    <glyph glyph-name="L" unicode="L" 
d="M485 170q0 -2 -6 -16l-62 -142q-4 -12 -18 -12h-402q-15 0 -15 11q0 4 2 14l11 53q3 15 18 15h54l106 500h-51q-14 0 -14 11q0 5 2 14l12 54q3 14 17 14h233q14 0 14 -11q0 -5 -1 -8l-2 -6l-11 -53q-3 -15 -18 -15h-54l-103 -489h148l41 93q5 12 12 12q3 0 16 -5l58 -22
q13 -5 13 -12z" />
    <glyph glyph-name="M" unicode="M" horiz-adv-x="722" 
d="M759 675q0 -1 -3 -15l-11 -53q-3 -14 -18 -14h-54l-82 -500h49q17 0 17 -11q0 -7 -2 -16l-12 -51q-4 -15 -17 -15h-219q-17 0 -17 11q0 -1 3 15l10 52q3 15 18 15h53l56 287q7 37 34 140q-39 -88 -68 -140l-120 -217q-6 -11 -18 -11h-46q-15 0 -17 16l-21 202
q-5 50 -8 150q-7 -39 -31 -153l-63 -274h49q17 0 17 -11q0 -2 -2 -16l-12 -51q-4 -15 -17 -15h-215q-17 0 -17 11q0 1 3 15l11 52q3 15 17 15h54l131 500h-51q-17 0 -17 11q0 2 3 16l11 51q3 15 18 15h172q14 0 15 -16l23 -249q2 -22 2 -69q0 -31 -2 -58q23 65 56 124
l142 257q6 11 18 11h161q17 0 17 -11z" />
    <glyph glyph-name="N" unicode="N" horiz-adv-x="648" 
d="M708 675q0 -5 -1 -8l-1 -6l-12 -53q-3 -15 -18 -15h-54l-123 -578q-3 -15 -17 -15h-65q-14 0 -18 13l-116 362q-15 47 -25 117q-8 -59 -23 -129l-57 -270h52q13 0 13 -11q0 -7 -2 -16l-11 -51q-3 -15 -18 -15h-216q-15 0 -15 11q0 4 2 14l11 53q3 15 18 15h54l106 500
h-52q-13 0 -13 11q0 5 2 14l12 54q3 14 17 14h141q14 0 18 -13l107 -331q21 -66 33 -127q11 84 21 132l52 246h-52q-13 0 -13 11q0 5 2 14l12 54q3 14 18 14h217q14 0 14 -11z" />
    <glyph glyph-name="O" unicode="O" horiz-adv-x="574" 
d="M564 498q0 -111 -34 -226t-87 -183q-83 -106 -211 -106q-90 0 -138 53t-48 153q0 110 34 225t87 183q83 106 213 106q88 0 136 -53.5t48 -151.5zM432 496q0 56 -15.5 80.5t-52.5 24.5q-67 0 -119 -102q-30 -58 -48.5 -144.5t-18.5 -164.5q0 -105 66 -105q68 0 120 101
q30 58 49 145t19 165z" />
    <glyph glyph-name="P" unicode="P" horiz-adv-x="556" 
d="M578 533q0 -68 -29.5 -127.5t-79.5 -90.5q-66 -41 -169 -41h-68l-38 -181h62q14 0 14 -11q0 -4 -1 -8l-2 -8l-11 -51q-3 -15 -18 -15h-241q-15 0 -15 11q0 4 2 14l11 53q3 15 18 15h54l106 500h-51q-14 0 -14 11q0 5 2 14l12 54q3 14 17 14h229q112 0 159 -36
q51 -39 51 -117zM449 518q0 69 -95 69h-55l-44 -205h45q78 0 111 34q38 39 38 102z" />
    <glyph glyph-name="Q" unicode="Q" horiz-adv-x="574" 
d="M565 500q0 -171 -72 -327q-27 -58 -71 -109q25 -31 77 -72q10 -8 10 -14q0 -5 -6 -9l-81 -50q-5 -3 -12 -3q-28 0 -86 82q-40 -15 -86 -15q-191 0 -191 205q0 113 33.5 226.5t87.5 181.5q85 107 209 107q90 0 139 -53t49 -150zM433 498q0 103 -68 103q-65 0 -114 -92
q-31 -58 -51.5 -149t-20.5 -172q0 -103 66 -103t116 92q31 57 51.5 148.5t20.5 172.5z" />
    <glyph glyph-name="R" unicode="R" horiz-adv-x="556" 
d="M563 530q0 -50 -20 -99t-53 -79q-29 -27 -88 -54l74 -205h48q17 0 17 -11q0 -2 -3 -16l-11 -51q-3 -15 -17 -15h-125q-14 0 -18 14l-80 267h-56l-40 -188h55q13 0 13 -11q0 -7 -2 -16l-11 -51q-3 -15 -18 -15h-231q-15 0 -15 11q0 4 2 14l11 53q3 15 18 15h54l106 500
h-51q-14 0 -14 11q0 5 2 14l12 54q3 14 17 14h213q111 0 158 -37q53 -41 53 -119zM434 520q0 39 -27 56q-18 11 -68 11h-43l-43 -202h39q71 0 104 32q38 37 38 103z" />
    <glyph glyph-name="S" unicode="S" 
d="M515 645q0 -9 -2 -18l-27 -127q-3 -14 -18 -14h-65q-17 0 -17 12l3 14l15 69q-42 14 -72 14q-50 0 -80 -25t-30 -68q0 -36 28 -60q9 -8 89 -60q61 -38 86 -74.5t25 -88.5q0 -105 -73 -169t-194 -64q-97 0 -156 32q-23 12 -23 32q0 6 3 20l27 129q3 14 18 14h65
q17 0 17 -11q0 -1 -3 -15l-16 -75q47 -17 86 -17q53 0 83.5 25.5t30.5 70.5q0 33 -17.5 54t-74.5 57q-63 40 -87 62q-44 41 -44 118q0 102 68 160t187 58q75 0 145 -30q23 -10 23 -25z" />
    <glyph glyph-name="T" unicode="T" horiz-adv-x="481" 
d="M559 675q0 -6 -2 -15l-38 -180q-3 -14 -18 -14h-60q-17 0 -17 11l3 15l19 92h-74l-104 -491h67q13 0 13 -11q0 -2 -3 -16l-11 -51q-3 -15 -17 -15h-259q-15 0 -15 11q0 4 2 14l11 53q3 15 18 15h67l104 491h-74l-21 -104q-3 -14 -18 -14h-60q-17 0 -17 11q0 6 2 15
l38 180q3 14 18 14h429q17 0 17 -11z" />
    <glyph glyph-name="U" unicode="U" horiz-adv-x="648" 
d="M715 675q0 -5 -2 -14l-12 -53q-3 -15 -18 -15h-53l-77 -361q-18 -86 -34.5 -121.5t-51.5 -64.5q-72 -60 -184 -60q-202 0 -202 160q0 39 10 86l76 361h-52q-13 0 -13 11q0 4 2 14l11 54q3 14 18 14h233q13 0 13 -11q0 -4 -2 -14l-11 -53q-3 -15 -18 -15h-54l-77 -361
q-8 -38 -8 -68q0 -73 88 -73q103 0 132 139l77 363h-52q-13 0 -13 11q0 4 2 14l11 54q3 14 18 14h229q14 0 14 -11z" />
    <glyph glyph-name="V" unicode="V" horiz-adv-x="537" 
d="M654 675q0 -1 -3 -15l-11 -53q-3 -14 -18 -14h-43l-291 -594q-5 -11 -18 -11h-114q-16 0 -17 16l-36 589h-39q-17 0 -17 11q0 2 3 16l11 51q3 15 17 15h139q14 0 16.5 -5.5t2.5 -13.5l-2 -410q0 -31 -4 -161q30 79 66 161l183 417q5 12 18 12h140q17 0 17 -11z" />
    <glyph glyph-name="W" unicode="W" horiz-adv-x="778" 
d="M885 675q0 -1 -3 -15l-11 -53q-3 -14 -18 -14h-48l-263 -591q-5 -12 -18 -12h-80q-8 0 -12.5 2.5t-4.5 14.5l7 358q1 30 13 158q-21 -60 -59 -159l-164 -362q-5 -12 -18 -12h-81q-9 0 -13 3t-4 14l7 586h-55q-17 0 -17 11q0 4 1 6l2 10l11 51q3 15 18 15h145q18 0 18 -13
v-6l-18 -355q-3 -68 -15 -152q41 110 60 153l159 361q5 12 18 12h75q17 0 17 -17v-348q0 -45 -11 -161q32 108 52 161l136 351q5 14 20 14h137q17 0 17 -11z" />
    <glyph glyph-name="X" unicode="X" horiz-adv-x="537" 
d="M623 675q0 -1 -3 -15l-11 -53q-3 -14 -18 -14h-47l-191 -242l97 -258h49q18 0 18 -11q0 -2 -3 -16l-11 -51q-3 -15 -18 -15h-124q-15 0 -20 15l-49 161q-9 31 -16 69q-27 -42 -48 -69l-125 -166q-8 -10 -19 -10h-138q-17 0 -17 11q0 1 3 15l11 52q3 15 17 15h54l218 272
l-91 228h-47q-17 0 -17 12q0 6 2 15l11 51q3 15 18 15h121q15 0 19 -15l41 -141q13 -46 18 -78q28 51 47 79l99 144q8 11 20 11h133q17 0 17 -11z" />
    <glyph glyph-name="Y" unicode="Y" 
d="M622 675q0 -5 -2 -15l-11 -53q-3 -14 -18 -14h-46l-224 -312l-40 -188h66q13 0 13 -11q0 -7 -2 -16l-11 -51q-3 -15 -18 -15h-259q-15 0 -15 10q0 6 2 15l12 53q3 15 18 15h67l40 189l-95 311h-44q-17 0 -17 11q0 2 3 16l11 51q3 15 17 15h124q16 0 20 -15l43 -161
q14 -52 20 -112q40 74 64 108l119 170q7 10 20 10h126q17 0 17 -11z" />
    <glyph glyph-name="Z" unicode="Z" horiz-adv-x="481" 
d="M530 674q0 -5 -2 -14l-18 -85l-368 -458h181l36 81q5 12 12 12q2 0 13 -4l61 -23q13 -5 13 -12q0 -5 -5 -16l-63 -143q-5 -12 -19 -12h-381q-17 0 -17 11l3 15l15 75l376 474h-160l-17 -81q-3 -14 -18 -14h-69q-17 0 -17 11q0 6 2 15l36 166q3 14 17 14h372q17 0 17 -12z
" />
    <glyph glyph-name="bracketleft" unicode="[" horiz-adv-x="482" 
d="M518 704l-3 -15l-13 -63q-3 -14 -18 -14h-103l-152 -714h98q17 0 17 -11q0 -6 -2 -15l-14 -63q-3 -14 -18 -14h-205q-14 0 -14 11q0 1 3 15l187 880q3 14 17 14h203q17 0 17 -11z" />
    <glyph glyph-name="backslash" unicode="\" horiz-adv-x="537" 
d="M569 -192q0 -13 -19 -13h-65q-16 0 -22 15l-374 879q-4 9 -4 13q0 13 19 13h64q17 0 23 -14l374 -880q4 -9 4 -13z" />
    <glyph glyph-name="bracketright" unicode="]" horiz-adv-x="482" 
d="M390 704q0 -1 -3 -15l-187 -880q-3 -14 -17 -14h-203q-17 0 -17 11l3 15l13 63q3 14 18 14h103l152 714h-98q-17 0 -17 11q0 6 2 15l14 62q3 15 17 15h206q14 0 14 -11z" />
    <glyph glyph-name="asciicircum" unicode="^" horiz-adv-x="514" 
d="M514 368h-118l-119 233l-119 -233h-117l163 321h146z" />
    <glyph glyph-name="underscore" unicode="_" horiz-adv-x="514" 
d="M437 -143h-514v79h514v-79z" />
    <glyph glyph-name="grave" unicode="`" 
d="M437 595q0 -4 -11 -19l-15 -20q-8 -11 -13 -11t-17 6l-154 74q-9 4 -9 14q0 7 6 16l39 56q7 10 17 10q4 0 14 -8l137 -110q6 -4 6 -8z" />
    <glyph glyph-name="a" unicode="a" horiz-adv-x="519" 
d="M487 484q0 -2 -2 -11l-67 -314q-10 -47 -10 -70h58q13 0 13 -9q0 -4 -2 -13l-12 -55q-3 -12 -14 -12h-64q-48 0 -67 15.5t-19 55.5q0 14 1 22q-70 -110 -167 -110q-112 0 -112 163q0 148 70.5 256.5t167.5 108.5q66 0 110 -54l12 27q4 10 14 10h78q12 0 12 -10zM346 385
q-41 37 -73 37q-46 0 -77 -58q-20 -37 -36 -106.5t-16 -116.5q0 -60 42 -60q51 0 91 54q24 32 35 87z" />
    <glyph glyph-name="b" unicode="b" horiz-adv-x="519" 
d="M488 357q0 -76 -26 -157t-68 -134q-65 -83 -162 -83q-86 0 -183 56q-22 13 -22 25q0 2 2 11l117 553h-59q-13 0 -13 11q0 5 2 14l11 50q3 14 18 14h164q14 0 14 -9q0 -5 -2 -14l-44 -206q-6 -30 -18 -59q56 82 149 82q120 0 120 -154zM367 347q0 66 -53 66
q-93 0 -123 -141l-37 -172q48 -28 82 -28q52 0 84 68q19 40 33 102t14 105z" />
    <glyph glyph-name="c" unicode="c" horiz-adv-x="408" 
d="M428 469q0 -3 -2 -12l-27 -127q-2 -11 -14 -11h-68q-13 0 -13 9q0 7 2 13l15 71q-12 1 -24 1q-56 0 -87 -42q-59 -80 -59 -204q0 -80 75 -80q29 0 69 17q11 6 17 6q4 0 7 -5l25 -66q3 -8 3 -10q0 -14 -47 -30t-89 -16q-88 0 -136.5 51.5t-48.5 143.5q0 80 29.5 154
t81.5 120q65 59 167 59q42 0 83 -14t41 -28z" />
    <glyph glyph-name="d" unicode="d" horiz-adv-x="519" 
d="M535 708q0 -5 -2 -14l-118 -554q-6 -28 -6 -44v-7h60q14 0 14 -9q0 -4 -1 -6l-2 -7l-11 -55q-2 -12 -14 -12h-66q-48 0 -67 15.5t-19 55.5q0 14 1 22q-41 -59 -80 -84.5t-88 -25.5q-109 0 -109 148q0 167 83 283q69 97 170 97q49 0 88 -25l30 142h-58q-14 0 -14 11
q0 5 2 14l11 50q3 14 18 14h164q14 0 14 -9zM350 399q-33 17 -64 17q-62 0 -93 -65q-18 -39 -31.5 -98t-13.5 -103q0 -69 47 -69q39 0 72.5 42t47.5 110z" />
    <glyph glyph-name="e" unicode="e" horiz-adv-x="481" 
d="M455 379q0 -64 -43 -111.5t-119 -66.5q-52 -13 -147 -13q-1 -10 -1 -20q0 -87 87 -87q43 0 112 36q11 6 16 6t8 -7l25 -62q2 -5 2 -10q0 -4 -17 -14q-78 -47 -178 -47q-83 0 -128.5 48t-45.5 137q0 159 98 263q75 80 185 80q68 0 107 -35t39 -97zM338 372q0 50 -47 50
q-57 0 -96 -54q-21 -30 -35 -87q86 0 127 19q51 23 51 72z" />
    <glyph glyph-name="f" unicode="f" horiz-adv-x="333" 
d="M440 691q0 -2 -3 -9l-23 -70q-3 -6 -8 -6q-3 0 -18 6q-22 9 -43 9q-29 0 -42.5 -17t-24.5 -67l-9 -43h114q12 0 12 -9q0 -2 -3 -12l-18 -58q-4 -10 -15 -10h-109l-80 -412q-21 -106 -62 -147q-52 -51 -128 -51q-91 0 -91 17q0 4 2 11l21 71q3 7 8 7h3q16 -4 36 -4
q42 0 60.5 22.5t32.5 89.5l80 396h-71q-13 0 -13 10l1 11l12 56q3 12 15 12h75l13 64q18 89 54 122q42 39 121 39q37 0 69 -9t32 -19z" />
    <glyph glyph-name="g" unicode="g" horiz-adv-x="519" 
d="M523 460q0 -3 -10 -18q-37 -55 -49 -111l-31 -148q-13 -62 -31 -166q-14 -83 -31 -122.5t-49 -64.5q-54 -42 -155 -42q-59 0 -120.5 17t-61.5 34q0 3 3 10l31 73q3 7 9 7t16 -5q71 -36 131 -36q53 0 80 26q21 20 31 78q12 67 20 92q-74 -86 -150 -86q-60 0 -93 43
t-33 120q0 154 90 272q59 78 148 78q37 0 61.5 -12t56.5 -47q36 57 55 57q3 0 14 -6l61 -33q7 -3 7 -10zM356 385q-38 37 -78 37q-49 0 -82 -66q-19 -37 -32 -96t-13 -104q0 -66 50 -66q45 0 82 42q25 28 38 90z" />
    <glyph glyph-name="h" unicode="h" horiz-adv-x="537" 
d="M501 79q0 -3 -2 -12l-12 -55q-3 -12 -14 -12h-82q-48 0 -69 16t-21 44q0 20 6 46l46 200q9 39 9 62q0 39 -45 39q-44 0 -79 -52t-55 -145l-42 -198q-3 -12 -14 -12h-92q-14 0 -14 10q0 2 2 11l129 607h-59q-14 0 -14 11q0 5 1 8l2 6l10 50q3 14 18 14h166q13 0 13 -9
q0 -5 -2 -14l-43 -201q-7 -33 -9 -41t-7 -23q76 82 158 82q102 0 102 -104q0 -30 -11 -79l-54 -239h65q13 0 13 -10z" />
    <glyph glyph-name="i" unicode="i" horiz-adv-x="278" 
d="M299 644q0 -34 -24 -58.5t-59 -24.5q-34 0 -58 24t-24 59q0 34 24 58t59 24q34 0 58 -24.5t24 -57.5zM246 485l-1 -12l-82 -384h64q14 0 14 -9q0 -4 -2 -13l-12 -55q-3 -12 -14 -12h-80q-54 0 -73.5 18.5t-19.5 42.5q0 12 7 45l63 299h-76q-14 0 -14 9q0 3 2 12l12 56
q3 12 14 12h185q14 0 13 -9z" />
    <glyph glyph-name="j" unicode="j" horiz-adv-x="278" 
d="M312 644q0 -34 -24 -58.5t-59 -24.5q-34 0 -58 24.5t-24 58.5t24 58t59 24q34 0 58 -24t24 -58zM262 485q0 -3 -2 -12l-99 -463q-29 -136 -68 -181q-54 -62 -141 -62q-33 0 -66 9t-33 18q0 4 3 10l25 72q3 9 10 9q5 0 19 -7q20 -10 40 -10q41 0 61 39q14 26 30 103
l84 395h-76q-14 0 -14 10q0 2 2 11l12 56q3 12 14 12h185q14 0 14 -9z" />
    <glyph glyph-name="k" unicode="k" horiz-adv-x="519" 
d="M564 485q0 -4 -1 -6l-2 -7l-12 -56q-2 -11 -14 -11h-41l-184 -141l103 -175h50q14 0 14 -9q0 -4 -2 -13l-12 -55q-3 -12 -14 -12h-111q-11 0 -16 9l-132 233l-49 -230q-3 -12 -14 -12h-92q-14 0 -14 9q0 3 2 12l129 607h-59q-14 0 -14 11q0 5 1 8l2 6l10 50q3 14 18 14
h165q13 0 13 -9q0 -5 -2 -14l-88 -412l168 127h-59q-14 0 -14 9q0 5 2 14l11 50q3 12 14 12h230q14 0 14 -9z" />
    <glyph glyph-name="l" unicode="l" horiz-adv-x="278" 
d="M284 708q0 -5 -2 -14l-110 -513q-10 -47 -10 -64q0 -19 21 -19q9 0 27 4q8 3 11 3q5 0 6 -7l10 -69q1 -7 1 -10q0 -10 -33.5 -19.5t-68.5 -9.5q-98 0 -98 84q0 40 14 106l95 448h-59q-13 0 -13 11q0 5 2 14l11 50q3 14 17 14h165q14 0 14 -9z" />
    <glyph glyph-name="m" unicode="m" horiz-adv-x="778" 
d="M743 79q0 -1 -1 -5l-2 -7l-11 -55q-2 -12 -14 -12h-81q-93 0 -93 63q0 13 7 43l46 200q10 43 10 65q0 35 -35 35q-88 0 -129 -193l-43 -201q-3 -12 -14 -12h-92q-14 0 -14 11q0 1 2 10l65 285q10 44 10 66q0 34 -35 34q-41 0 -75.5 -51t-53.5 -142l-43 -201
q-3 -12 -15 -12h-91q-14 0 -14 10q0 2 2 11l71 310q10 44 10 74h-61q-13 0 -13 9q0 7 2 13l12 55q3 12 14 12h129q17 0 22 -18t5 -69q77 104 171 104q43 0 61 -23.5t19 -78.5q43 56 81 79t88 23q88 0 88 -104q0 -39 -9 -78l-55 -240h65q14 0 14 -10z" />
    <glyph glyph-name="n" unicode="n" horiz-adv-x="537" 
d="M501 79q0 -3 -2 -12l-12 -55q-3 -12 -14 -12h-80q-50 0 -68 13q-24 17 -24 50q0 16 6 43l45 200q9 40 9 60q0 40 -42 40q-89 0 -130 -192l-43 -202q-3 -12 -15 -12h-91q-14 0 -14 11q0 1 2 10l71 310q10 44 10 74h-61q-13 0 -13 9q0 10 8 43l6 25q3 12 14 12h129
q17 0 19 -11q8 -22 8 -58v-18q47 58 86 81t88 23q94 0 94 -104q0 -35 -10 -79l-54 -239h64q14 0 14 -10z" />
    <glyph glyph-name="o" unicode="o" 
d="M469 333q0 -160 -99 -272q-69 -78 -179 -78q-81 0 -124.5 45.5t-43.5 130.5q0 161 96 269q74 83 186 83q77 0 120.5 -47.5t43.5 -130.5zM343 343q0 70 -63 70q-52 0 -85 -62q-18 -34 -32 -94t-14 -102q0 -74 60 -74q59 0 91 66q17 35 30 95t13 101z" />
    <glyph glyph-name="p" unicode="p" horiz-adv-x="518" 
d="M488 366q0 -79 -26 -164t-65 -135q-66 -84 -164 -84q-48 0 -87 27l-26 -123h54q13 0 13 -9q0 -3 -2 -13l-11 -55q-2 -12 -14 -12h-228q-14 0 -14 9q0 4 2 13l12 56q2 11 14 11h54l91 429q11 54 14 89h-61q-14 0 -14 9q0 4 2 13l12 55q3 12 14 12h130q17 0 22 -18
q6 -23 6 -61q69 96 152 96q120 0 120 -145zM368 348q0 65 -47 65q-88 0 -121 -151l-36 -165q32 -19 65 -19q66 0 97 74q16 37 29 98t13 98z" />
    <glyph glyph-name="q" unicode="q" horiz-adv-x="519" 
d="M518 460q0 -3 -6 -12q-39 -56 -52 -117l-94 -444h50q13 0 13 -9q0 -4 -2 -13l-12 -55q-3 -12 -14 -12h-228q-14 0 -14 9q0 3 3 13l11 56q2 11 15 11h58l22 102q8 37 20 77q-68 -83 -153 -83q-51 0 -80.5 42.5t-29.5 116.5q0 176 100 299q57 70 139 70q67 0 117 -60
q36 58 57 58q4 0 8 -3l66 -36q6 -3 6 -10zM353 385q-43 37 -77 37q-47 0 -78 -57q-22 -40 -37 -106.5t-15 -119.5q0 -58 43 -58q46 0 80.5 38t48.5 103z" />
    <glyph glyph-name="r" unicode="r" horiz-adv-x="370" 
d="M408 493q0 -3 -2 -8l-42 -101q-1 -6 -6 -6q2 0 -18 5q-8 2 -16 2q-45 0 -81.5 -47t-53.5 -129l-42 -197q-3 -12 -14 -12h-92q-14 0 -14 10q0 3 2 12l66 309q10 45 11 74h-61q-14 0 -14 9q0 4 1 6l2 7l11 55q4 12 15 12h129q15 0 19 -11q7 -22 7 -59v-28q29 47 54 71
q41 39 94 39q45 0 45 -13z" />
    <glyph glyph-name="s" unicode="s" horiz-adv-x="407" 
d="M382 469q0 -3 -1 -8l-21 -99q-3 -12 -14 -12h-65q-14 0 -14 9q0 5 2 14l10 43q-16 3 -28 3q-79 0 -79 -61q0 -22 16 -35q7 -6 61 -32q63 -27 85 -54t22 -77q0 -82 -53 -129.5t-144 -47.5q-54 0 -111 16.5t-57 32.5q0 2 2 11l21 98q3 13 14 13h65q14 0 14 -9q0 -1 -1 -5
l-1 -7l-11 -49q32 -9 59 -9q89 0 89 65q0 25 -19 39q-7 5 -42 21q-75 34 -98.5 60t-23.5 75q0 79 53 127.5t138 48.5q47 0 89.5 -13.5t42.5 -28.5z" />
    <glyph glyph-name="t" unicode="t" horiz-adv-x="370" 
d="M406 485q0 -2 -4 -14l-19 -56q-4 -10 -15 -10h-128l-50 -238q-6 -29 -6 -49q0 -35 40 -35t77 18l5 2q5 3 8 3q5 0 7 -7l16 -68q1 -1 1 -4q0 -13 -57.5 -28.5t-103.5 -15.5q-119 0 -119 102q0 25 8 63l54 257h-66q-14 0 -14 10q0 3 2 12l12 55q3 12 14 12h71l27 124
q1 10 13 12l89 13q7 1 12 1q9 0 8 -9l-1 -14l-28 -127h133q14 0 14 -9z" />
    <glyph glyph-name="u" unicode="u" horiz-adv-x="537" 
d="M507 493q0 -8 -1 -10l-73 -320q-10 -44 -10 -74h59q13 0 13 -9q0 -4 -2 -13l-12 -55q-3 -12 -14 -12h-65q-48 0 -67 16t-19 56q0 13 1 22q-76 -111 -173 -111q-99 0 -99 101q0 37 10 81l55 240h-66q-14 0 -14 9q0 4 2 13l12 56q2 11 14 11h174q14 0 14 -9q0 -5 -2 -14
l-63 -279q-10 -44 -10 -61q0 -40 40 -40q92 0 133 193l39 183q3 13 16 16l88 19l11 1q9 0 9 -10z" />
    <glyph glyph-name="v" unicode="v" horiz-adv-x="463" 
d="M498 482q0 -4 -5 -13l-263 -472q-5 -9 -14 -9h-82q-12 0 -14 13l-49 404h-65q-14 0 -14 9q0 4 2 13l12 55q3 12 14 12h146q15 0 16 -14l14 -227q4 -65 4 -134q20 45 61 134l119 240q4 9 9 9q2 0 6 -1l90 -10q13 -1 13 -9z" />
    <glyph glyph-name="w" unicode="w" horiz-adv-x="685" 
d="M706 478q0 -2 -5 -12l-233 -465q-5 -9 -15 -9h-88q-14 0 -14 15l7 269q1 48 7 91q-19 -56 -35 -91l-123 -274q-4 -10 -14 -10h-80q-13 0 -14 14l-22 399h-64q-14 0 -14 9q0 4 2 13l12 55q3 12 14 12h145q17 0 17 -17l-2 -249q0 -56 -5 -108q18 55 41 108l110 257
q4 9 15 9h87q13 0 13 -14l-1 -244q0 -66 -7 -120q9 27 46 122l106 251q4 9 10 9q4 0 12 -1l79 -10q13 -2 13 -9z" />
    <glyph glyph-name="x" unicode="x" horiz-adv-x="463" 
d="M486 458q0 -5 -5 -10l-187 -193l83 -166h68q14 0 14 -9q0 -4 -2 -13l-12 -55q-3 -12 -14 -12h-129q-11 0 -16 11l-42 99q-7 16 -17 39l-10 25q-22 -32 -51 -65l-101 -114q-6 -7 -10 -7q-1 0 -9 3l-82 32q-8 3 -8 9q0 5 6 11l203 210l-73 152h-68q-14 0 -14 9q0 4 2 13
l12 55q3 12 14 12h129q11 0 16 -11l35 -85q11 -26 17 -45q3 -6 7 -18q27 35 49 60l90 104q5 6 9 6q3 0 9 -2l78 -35q9 -4 9 -10z" />
    <glyph glyph-name="y" unicode="y" horiz-adv-x="463" 
d="M503 478q0 -3 -4 -11l-201 -409q-80 -164 -114 -208q-52 -69 -141 -69q-35 0 -76.5 14.5t-41.5 26.5q0 4 3 9l36 63q5 8 10 8q3 0 10 -3q40 -18 65 -18q56 0 85 57l32 62h-40q-12 0 -14 13l-46 392h-66q-13 0 -13 9q0 4 2 13l12 55q3 12 14 12h148q15 0 16 -14l18 -237
q5 -69 8 -164q15 34 42 102q11 31 23 58l112 253q4 9 10 9q3 0 12 -1l88 -12q11 -1 11 -10z" />
    <glyph glyph-name="z" unicode="z" horiz-adv-x="426" 
d="M438 485q0 -3 -2 -12l-15 -69l-293 -305h153l36 56q6 9 11 9t14 -5l46 -27q10 -6 10 -12q0 -4 -4 -10l-66 -101q-6 -9 -16 -9h-330q-14 0 -14 9q0 3 2 12l14 64l298 310h-122l-13 -61q-2 -11 -14 -11h-65q-13 0 -13 9q0 4 2 13l30 138q2 11 14 11h323q14 0 14 -9z" />
    <glyph glyph-name="braceleft" unicode="{" horiz-adv-x="444" 
d="M475 704q0 -5 -2 -15l-13 -62q-2 -11 -6 -12.5t-26 -2.5q-67 -2 -82 -72l-33 -154q-10 -48 -31 -74.5t-63 -45.5q48 -28 48 -75q0 -22 -5 -46l-37 -175q-4 -19 -4 -27q0 -45 57 -45h10q14 0 14 -11q0 -1 -3 -15l-13 -62q-3 -16 -22 -16q-165 0 -165 125q0 27 7 60l34 161
q3 14 3 26q0 45 -65 45h-11q-17 0 -17 11l3 15l14 69q3 14 18 14h23q70 0 85 71l30 140q39 184 235 184q17 0 17 -11z" />
    <glyph glyph-name="bar" unicode="|" horiz-adv-x="514" 
d="M343 -171h-131v857h131v-857z" />
    <glyph glyph-name="braceright" unicode="}" horiz-adv-x="444" 
d="M393 288q0 -6 -2 -15l-15 -70q-3 -14 -17 -14h-24q-70 0 -85 -71l-30 -140q-39 -184 -234 -184q-18 0 -18 11q0 6 2 15l14 62q3 15 17 15q44 -1 65.5 15.5t30.5 56.5l33 154q10 49 31.5 75.5t63.5 45.5q-49 29 -49 76q0 17 6 45l37 175q3 14 3 28q0 44 -66 44
q-14 0 -14 11q0 5 2 15l13 62q3 16 24 16q163 0 163 -125q0 -27 -7 -60l-34 -161q-3 -14 -3 -26q0 -45 65 -45h11q17 0 17 -11z" />
    <glyph glyph-name="asciitilde" unicode="~" horiz-adv-x="686" 
d="M613 712q-59 -133 -148 -133q-29 0 -109 35q-71 31 -95 31q-41 0 -79 -68l-65 54q57 132 148 132q37 0 114 -35q66 -30 89 -30q42 0 80 68z" />
    <glyph glyph-name="nonbreakingspace" unicode="&#xa0;" horiz-adv-x="206" 
 />
    <glyph glyph-name="exclamdown" unicode="&#xa1;" horiz-adv-x="352" 
d="M290 420q0 -33 -23.5 -56.5t-56.5 -23.5t-56.5 23.5t-23.5 56.5t23.5 56.5t57.5 23.5q32 0 55.5 -23.5t23.5 -56.5zM222 232q0 -1 -2 -14l-63 -403q-2 -15 -18 -15h-106q-17 0 -17 12q0 3 3 11l108 407q4 14 18 14h62q15 0 15 -12z" />
    <glyph glyph-name="cent" unicode="&#xa2;" horiz-adv-x="518" 
d="M508 554q0 -4 -2 -8l-40 -65q-4 -6 -10 -6q-4 0 -9 4q-22 18 -53 24l-70 -327q21 5 48 19q8 4 12 4t6 -5l26 -67q3 -6 3 -9q0 -12 -36 -26.5t-81 -19.5l-12 -58q-2 -10 -5.5 -12t-19.5 -2h-16q-17 0 -17 12l3 14l10 48q-148 27 -148 192q0 107 48 195q54 98 149 128
q27 8 62 11l13 59q3 14 18 14h23q17 0 17 -11l-3 -15l-10 -49q33 -5 63.5 -19.5t30.5 -24.5zM339 504q-37 -10 -60 -40q-67 -88 -67 -210q0 -65 56 -81z" />
    <glyph glyph-name="sterling" unicode="&#xa3;" horiz-adv-x="518" 
d="M568 629q0 -5 -5 -14l-32 -60q-6 -12 -18 -12q-6 0 -22 10q-47 29 -98 29q-66 0 -104 -43.5t-38 -118.5q0 -17 1 -30h147q17 0 17 -10q0 -3 -3 -16l-12 -53q-3 -14 -18 -14h-124q2 -32 2 -36q0 -70 -41 -155h265q15 0 15 -8q0 -7 -6 -20l-31 -66q-4 -12 -18 -12h-441
q-17 0 -17 11l3 15l13 66q3 14 18 14h75q30 49 41 89.5t10 101.5h-91q-17 0 -17 11q0 6 2 15l12 53q3 14 18 14h68q-3 23 -3 41q0 114 73 184.5t191 70.5q56 0 112 -19t56 -38z" />
    <glyph glyph-name="currency" unicode="&#xa4;" horiz-adv-x="645" 
d="M617 133q0 -6 -9 -15l-43 -43q-10 -10 -15 -10t-15 10l-44 44q-62 -36 -151 -36t-153 35l-43 -44q-9 -9 -15 -9q-5 0 -14 9l-44 44q-9 9 -9 15q0 5 9 14l42 42q-41 66 -41 159q0 89 40 151l-41 40q-9 9 -9 15q0 5 9 14l44 44q9 9 14 9q6 0 15 -9l41 -41q64 40 156 40
t155 -39l39 40q9 9 15 9t15 -9l43 -44q9 -9 9 -15q0 -5 -9 -14l-39 -40q38 -62 38 -153t-42 -155l43 -44q9 -8 9 -14zM472 346q0 88 -31 126t-104 38q-69 0 -99.5 -38.5t-30.5 -126.5q0 -85 31 -123t101 -38t101.5 38t31.5 124z" />
    <glyph glyph-name="yen" unicode="&#xa5;" horiz-adv-x="519" 
d="M623 675q0 -1 -3 -15l-11 -53q-3 -14 -18 -14h-45l-130 -187h103q17 0 17 -12q0 -2 -2 -11l-2 -9q-3 -14 -18 -14h-129l-33 -48h147q17 0 17 -10q0 -4 -2 -13l-2 -9q-3 -14 -18 -14h-162l-37 -173h66q13 0 13 -11q0 -7 -2 -16l-11 -51q-3 -15 -18 -15h-259q-15 0 -15 11
q0 4 2 14l11 53q3 15 18 15h68l37 173h-145q-17 0 -17 11q0 4 3 15l1 6q3 15 18 15h139l-13 47h-111q-17 0 -17 11q0 -3 3 15l1 6q2 14 18 14h94l-53 187h-43q-17 0 -17 11q0 7 2 16l11 51q3 15 18 15h111q18 0 22 -17l39 -172q10 -43 18 -117l7 15q1 3 7.5 15t46.5 75
l122 193q5 8 18 8h118q17 0 17 -11z" />
    <glyph glyph-name="brokenbar" unicode="&#xa6;" horiz-adv-x="514" 
d="M343 330h-131v356h131v-356zM343 -171h-131v329h131v-329z" />
    <glyph glyph-name="section" unicode="&#xa7;" horiz-adv-x="519" 
d="M471 553q0 -4 -5 -13l-30 -54q-3 -8 -12 -8q-6 0 -15 6q-53 35 -101 35q-72 0 -72 -52q0 -18 12 -27.5t86 -51.5q65 -37 91.5 -72.5t26.5 -85.5q0 -106 -130 -152q68 -41 68 -119q0 -67 -48 -117q-53 -55 -150 -55q-87 0 -176 51q-19 11 -19 19q0 5 6 16l30 56q6 9 13 9
q5 0 29 -16q58 -38 117 -38q66 0 66 58q0 24 -16 38.5t-76 47.5q-69 37 -95.5 71.5t-26.5 86.5q0 109 135 154q-62 40 -62 108q0 73 53.5 119t138.5 46q51 0 106.5 -20.5t55.5 -39.5zM334 215q0 38 -71 79q-99 -38 -99 -92q0 -23 14.5 -37.5t61.5 -39.5q94 38 94 90z" />
    <glyph glyph-name="dieresis" unicode="&#xa8;" 
d="M495 634q0 -29 -20.5 -49.5t-49.5 -20.5q-28 0 -48.5 20.5t-20.5 48.5q0 29 20.5 49.5t50.5 20.5q28 0 48 -20.5t20 -48.5zM303 634q0 -29 -20.5 -49.5t-49.5 -20.5q-28 0 -48.5 20.5t-20.5 48.5q0 29 20.5 49.5t50.5 20.5q28 0 48 -20.5t20 -48.5z" />
    <glyph glyph-name="copyright" unicode="&#xa9;" horiz-adv-x="700" 
d="M690 373q0 -156 -103.5 -271t-243.5 -115q-126 0 -211.5 94t-85.5 232q0 158 104 272t247 114q123 0 208 -94.5t85 -231.5zM621 365q0 115 -67.5 190t-170.5 75q-107 0 -187.5 -93t-80.5 -217q0 -112 67.5 -188t166.5 -76q110 0 191 92.5t81 216.5zM515 520q0 -2 -2 -12
l-14 -71q-3 -15 -20 -15h-42q-16 0 -16 12q0 3 2 13l7 34q-15 3 -24 3q-44 0 -71 -44q-43 -71 -43 -164q0 -38 14 -53t49 -15q12 0 20 2l9 42q3 15 20 15h42q16 0 16 -12q0 -4 -2 -10l-16 -79q-2 -10 -16 -18q-47 -20 -102 -20q-133 0 -133 149q0 136 71 218q55 64 147 64
q39 0 71.5 -12.5t32.5 -26.5z" />
    <glyph glyph-name="ordfeminine" unicode="&#xaa;" horiz-adv-x="333" 
d="M349 557q0 -2 -2 -8l-43 -202l-1 -16h31q13 0 13 -9l-1 -10l-7 -32q-3 -12 -15 -12h-43q-54 0 -59 44q-51 -54 -102 -54q-78 0 -78 105q0 86 46 150t108 64q40 0 65 -36l8 16q4 10 15 10h52q13 0 13 -10zM246 495q-25 17 -42 17q-26 0 -42 -29q-29 -52 -29 -124
q0 -32 22 -32q54 0 71 76z" />
    <glyph glyph-name="guillemotleft" unicode="&#xab;" horiz-adv-x="593" 
d="M593 447q0 -5 -6 -12l-169 -192l80 -185q4 -9 4 -13q0 -7 -8 -11l-57 -27q-11 -5 -14 -5q-7 0 -12 10l-126 233q-4 5 -4 10q0 6 6 10l232 229q7 7 12 7t12 -6l42 -36q8 -7 8 -12zM353 447q0 -4 -7 -12l-169 -192l80 -185q5 -12 5 -13q0 -7 -9 -11l-57 -27q-11 -5 -14 -5
q-7 0 -12 10l-126 233q-4 6 -4 10q0 6 6 10l232 229q6 7 12 7q5 0 12 -6l42 -36q9 -8 9 -12z" />
    <glyph glyph-name="logicalnot" unicode="&#xac;" horiz-adv-x="514" 
d="M501 0h-127v180h-319v115h446v-295z" />
    <glyph glyph-name="sfthyphen" unicode="&#xad;" horiz-adv-x="334" 
d="M304 300l-1 -12l-17 -78q-3 -14 -18 -14h-223q-17 0 -17 12q0 -1 3 14l15 75q3 14 18 14h223q18 0 17 -11z" />
    <glyph glyph-name="registered" unicode="&#xae;" horiz-adv-x="700" 
d="M690 373q0 -156 -103.5 -271t-243.5 -115q-126 0 -211.5 94t-85.5 232q0 158 104 272t247 114q123 0 208 -94.5t85 -231.5zM621 365q0 115 -67.5 190t-170.5 75q-107 0 -187.5 -93t-80.5 -217q0 -112 67.5 -188t166.5 -76q110 0 191 92.5t81 216.5zM542 464
q0 -65 -45 -104q-13 -11 -49 -28l44 -106h25q16 0 16 -12q0 1 -2 -9l-6 -29q-3 -15 -19 -15h-74q-12 0 -16 11l-50 146h-28l-20 -92h24q13 0 13 -12l-1 -10l-6 -28q-3 -15 -19 -15h-136q-14 0 -14 12q0 6 1 9l6 29q3 15 19 15h26l57 268h-25q-14 0 -14 12l2 9l6 30
q3 15 19 15h130q136 0 136 -96zM452 457q0 19 -12.5 26.5t-45.5 7.5h-20l-21 -101h17q43 0 62.5 17t19.5 50z" />
    <glyph glyph-name="macron" unicode="&#xaf;" 
d="M457 665q0 -2 -2 -11l-11 -51q-3 -14 -18 -14h-210q-17 0 -17 10q0 2 3 16l10 48q3 14 17 14h211q17 0 17 -12z" />
    <glyph glyph-name="macron" unicode="&#x2c9;" 
d="M457 665q0 -2 -2 -11l-11 -51q-3 -14 -18 -14h-210q-17 0 -17 10q0 2 3 16l10 48q3 14 17 14h211q17 0 17 -12z" />
    <glyph glyph-name="degree" unicode="&#xb0;" horiz-adv-x="519" 
d="M478 546q0 -66 -46 -112t-112 -46q-65 0 -111 46t-46 111q0 66 46.5 112t113.5 46q63 0 109 -46.5t46 -110.5zM395 544q0 32 -21.5 54t-53.5 22q-31 0 -52.5 -22t-21.5 -53t21.5 -53t52.5 -22t53 21.5t22 52.5z" />
    <glyph glyph-name="plusminus" unicode="&#xb1;" horiz-adv-x="519" 
d="M486 223q0 -12 -4 -14.5t-13 -2.5h-160v-112q0 -12 -4 -14.5t-13 -2.5h-67q-12 0 -14.5 4t-2.5 13v112h-160q-12 0 -14.5 4t-2.5 13v68q0 12 4 14.5t13 2.5h160v159q0 12 4 14.5t13 2.5h67q12 0 14.5 -4t2.5 -13v-159h160q12 0 14.5 -4t2.5 -13v-68zM486 -45
q0 -12 -4 -14.5t-13 -2.5h-421q-12 0 -14.5 4t-2.5 13v67q0 12 4 14.5t13 2.5h421q12 0 14.5 -4t2.5 -13v-67z" />
    <glyph glyph-name="twosuperior" unicode="&#xb2;" horiz-adv-x="352" 
d="M381 578q0 -49 -28 -81.5t-118 -86.5q-66 -40 -77 -68h150q16 0 16 -12l-2 -10l-8 -39q-3 -14 -18 -14h-231q-12 0 -12 8q0 19 14 58q25 72 133 139q56 35 72 53t16 45q0 36 -34 36q-23 0 -42 -18q-6 -6 -28 -36q-7 -9 -14 -9q-3 0 -9 2l-36 17q-9 3 -9 10q0 12 20 40
q48 67 137 67q108 0 108 -101z" />
    <glyph glyph-name="threesuperior" unicode="&#xb3;" horiz-adv-x="352" 
d="M357 590q0 -27 -14 -54q-17 -32 -58 -53q47 -26 47 -80q0 -66 -47 -105.5t-125 -39.5q-38 0 -78.5 11.5t-40.5 22.5q0 3 3 9l20 42q5 10 13 10q3 0 10 -3q37 -20 80 -20q76 0 76 68q0 42 -66 42h-20q-16 0 -16 9q0 4 1 7l1 5l9 40q3 14 17 14h25q76 0 76 60q0 32 -34 32
q-29 0 -68 -31q-6 -5 -11 -5t-9 4l-31 26q-5 4 -5 8q0 7 17 23q50 47 118 47q50 0 80 -24t30 -65z" />
    <glyph glyph-name="acute" unicode="&#xb4;" 
d="M478 633q0 -7 -13 -12l-188 -68q-14 -5 -16 -5q-7 0 -11 12l-13 29q-5 11 -5 16q0 6 11 12l178 95q11 6 16 6q7 0 12 -12l24 -58q5 -12 5 -15z" />
    <glyph glyph-name="mu" unicode="&#xb5;" horiz-adv-x="537" 
d="M499 492q0 -6 -1 -9l-68 -320q-9 -42 -9 -74h59q14 0 13 -10l-1 -12l-11 -55q-2 -12 -14 -12h-65q-57 0 -74 23q-13 18 -13 71q-63 -111 -144 -111q-21 0 -36 9l-34 -158q-3 -13 -15 -16l-89 -19l-11 -1q-9 0 -9 11q0 4 1 9l138 649q3 13 16 16l89 19l11 1q9 0 9 -11
q0 -3 -2 -9l-61 -291q-9 -43 -9 -60q0 -41 40 -41q86 0 127 193l39 183q3 13 15 16l89 19l11 1q9 0 9 -11z" />
    <glyph glyph-name="mu" unicode="&#x3bc;" horiz-adv-x="537" 
d="M499 492q0 -6 -1 -9l-68 -320q-9 -42 -9 -74h59q14 0 13 -10l-1 -12l-11 -55q-2 -12 -14 -12h-65q-57 0 -74 23q-13 18 -13 71q-63 -111 -144 -111q-21 0 -36 9l-34 -158q-3 -13 -15 -16l-89 -19l-11 -1q-9 0 -9 11q0 4 1 9l138 649q3 13 16 16l89 19l11 1q9 0 9 -11
q0 -3 -2 -9l-61 -291q-9 -43 -9 -60q0 -41 40 -41q86 0 127 193l39 183q3 13 15 16l89 19l11 1q9 0 9 -11z" />
    <glyph glyph-name="paragraph" unicode="&#xb6;" horiz-adv-x="722" 
d="M700 617q0 -13 -3.5 -17t-17.5 -4h-55v-761q0 -22 -21 -22h-61q-12 0 -16 4t-4 17v762h-67v-761q0 -14 -3.5 -17.5t-17.5 -3.5h-61q-14 0 -17 3.5t-3 17.5v326q-36 -7 -60 -7q-98 0 -158 66t-60 198q0 184 109 242q49 26 163 26h332q14 0 17.5 -3.5t3.5 -17.5v-48z
M353 251v345q-88 0 -121 -35t-33 -128q0 -100 26.5 -143.5t88.5 -43.5q18 0 39 5z" />
    <glyph glyph-name="middot" unicode="&#xb7;" horiz-adv-x="257" 
d="M212 244q0 -36 -25.5 -61.5t-60.5 -25.5q-36 0 -61.5 25.5t-25.5 60.5q0 37 25.5 62t62.5 25q35 0 60 -25.5t25 -60.5z" />
    <glyph glyph-name="cedilla" unicode="&#xb8;" 
d="M326 -119q0 -46 -31 -73.5t-81 -27.5q-81 0 -81 19q0 5 2 11l12 38q1 7 6 7q2 0 13.5 -5t29.5 -5q36 0 36 28q0 19 -37 22q-19 2 -19 7q0 1 2 11l28 87h77l-15 -56q58 -6 58 -63z" />
    <glyph glyph-name="onesuperior" unicode="&#xb9;" horiz-adv-x="352" 
d="M325 658q0 -7 -1 -9l-67 -317h41q14 0 14 -11q0 -3 -2 -9l-6 -31q-3 -14 -18 -14h-185q-14 0 -14 10q0 6 2 11l6 30q3 14 18 14h58l52 244l-54 -28q-8 -4 -14 -4t-11 10l-10 21q-4 8 -4 12q0 6 10 12l114 65q9 5 17 5h39q15 0 15 -11z" />
    <glyph glyph-name="ordmasculine" unicode="&#xba;" horiz-adv-x="315" 
d="M339 464q0 -88 -52.5 -147t-129.5 -59q-115 0 -115 111q0 89 52.5 148.5t131.5 59.5q53 0 83 -30t30 -83zM245 469q0 38 -35 38q-30 0 -48 -32q-26 -46 -26 -109q0 -39 34 -39q33 0 50 34q25 50 25 108z" />
    <glyph glyph-name="guillemotright" unicode="&#xbb;" horiz-adv-x="593" 
d="M550 248q0 -5 -6 -10l-232 -229q-7 -7 -12 -7t-11 6l-43 36q-8 7 -8 12t6 12l169 192l-80 185q-4 9 -4 13q0 6 8 11l60 28q7 4 11 4q7 0 12 -10l126 -233q4 -6 4 -10zM310 248q0 -4 -6 -10l-233 -229q-6 -7 -12 -7q-5 0 -11 6l-43 36q-8 7 -8 12q0 4 7 12l168 192
l-80 185q-4 9 -4 13q0 6 8 11l58 27q11 5 13 5q8 0 13 -10l125 -233q5 -7 5 -10z" />
    <glyph glyph-name="onequarter" unicode="&#xbc;" horiz-adv-x="833" 
d="M768 144q0 1 -2 -9l-7 -34q-3 -14 -18 -14h-34l-16 -73q-3 -14 -17 -14h-51q-16 0 -16 11l2 10l14 67h-151q-15 0 -15 10l1 11l12 53q1 5 8 18l203 237q6 7 12 7q4 0 11 -3l40 -18q10 -4 10 -12q0 -4 -5 -10l-194 -228h83l37 98q5 12 17 12h34q15 0 15 -11q0 -7 -1 -10
l-18 -86h30q16 0 16 -12zM672 669q0 -7 -6 -17l-429 -682q-6 -10 -18 -10h-62q-18 0 -18 9q0 6 7 17l428 682q6 10 18 10h63q17 0 17 -9zM288 658q0 -7 -1 -9l-67 -317h41q14 0 14 -11q0 -3 -2 -9l-6 -31q-3 -14 -18 -14h-185q-14 0 -14 10q0 6 2 11l6 30q3 14 18 14h58
l52 244l-54 -28q-8 -4 -14 -4t-11 10l-10 21q-4 8 -4 12q0 6 10 12l114 65q9 5 17 5h39q15 0 15 -11z" />
    <glyph glyph-name="onehalf" unicode="&#xbd;" horiz-adv-x="833" 
d="M795 310q0 -58 -45 -98q-29 -26 -101 -69q-64 -39 -77 -68h150q15 0 15 -12l-1 -10l-8 -39q-3 -14 -18 -14h-231q-12 0 -12 8q0 15 15 58q25 72 132 139q56 35 72 53t16 44q0 36 -34 36q-23 0 -41 -17q-5 -5 -28 -36q-7 -9 -15 -9q-4 0 -9 2l-37 16q-8 3 -8 11
q0 12 20 39q49 67 137 67q108 0 108 -101zM669 669q0 -6 -7 -17l-429 -682q-6 -10 -17 -10h-63q-17 0 -17 9q0 7 6 17l429 682q6 10 18 10h63q17 0 17 -9zM295 658q0 -7 -1 -9l-67 -317h41q14 0 14 -11q0 -3 -2 -9l-6 -31q-3 -14 -18 -14h-185q-14 0 -14 10q0 6 2 11l6 30
q3 14 18 14h58l52 244l-54 -28q-8 -4 -14 -4t-11 10l-10 21q-4 8 -4 12q0 6 10 12l114 65q9 5 17 5h39q15 0 15 -11z" />
    <glyph glyph-name="threequarters" unicode="&#xbe;" horiz-adv-x="833" 
d="M774 145q0 -6 -1 -10l-8 -34q-3 -14 -17 -14h-35l-15 -73q-3 -14 -18 -14h-51q-15 0 -15 11q0 7 1 10l14 67h-151q-15 0 -15 11l2 10l11 53q1 7 3 10l2 4l4 4l202 237q6 7 13 7q3 0 10 -3l41 -18q10 -4 10 -12q0 -4 -5 -10l-195 -228h83l37 98q5 12 18 12h33q16 0 16 -10
q0 -1 -2 -11l-18 -86h31q15 0 15 -11zM675 669q0 -7 -6 -17l-429 -682q-6 -10 -18 -10h-62q-18 0 -18 9q0 6 7 17l428 682q6 10 18 10h63q17 0 17 -9zM327 590q0 -27 -14 -54q-17 -32 -58 -53q47 -26 47 -80q0 -66 -47 -105.5t-125 -39.5q-38 0 -78.5 11.5t-40.5 22.5
q0 3 3 9l20 42q5 10 13 10q3 0 10 -3q37 -20 80 -20q76 0 76 68q0 42 -66 42h-20q-16 0 -16 9q0 4 1 7l1 5l9 40q3 14 17 14h25q76 0 76 60q0 32 -34 32q-29 0 -68 -31q-6 -5 -11 -5t-9 4l-31 26q-5 4 -5 8q0 7 17 23q50 47 118 47q50 0 80 -24t30 -65z" />
    <glyph glyph-name="questiondown" unicode="&#xbf;" horiz-adv-x="463" 
d="M368 420q0 -33 -23.5 -56.5t-56.5 -23.5t-56.5 23.5t-23.5 56.5q0 34 23.5 57t57.5 23q32 0 55.5 -23.5t23.5 -56.5zM342 -162q0 -15 -71 -35t-125 -20q-78 0 -125 42t-47 112q0 80 55.5 139t148.5 76l16 75q3 14 18 14h79q16 0 16 -11q0 -1 -3 -15l-25 -119
q-3 -16 -22 -20q-88 -20 -117.5 -48.5t-29.5 -66.5q0 -61 68 -61q38 0 106 26q11 4 16 4t9 -10l29 -69q4 -10 4 -13z" />
    <glyph glyph-name="Agrave" unicode="&#xc0;" horiz-adv-x="556" 
d="M455 816q0 -3 -5 -17l-12 -33q-4 -12 -13 -12q-7 0 -18 3l-188 51q-9 2 -9 8q0 3 7 20l23 57q5 12 14 12q6 0 18 -5l174 -74q9 -4 9 -10zM536 82q0 -10 -2 -14l-11 -53q-3 -15 -18 -15h-217q-15 0 -15 11q0 5 2 14l12 53q3 15 17 15h51l-5 89h-179l-39 -89h49
q15 0 15 -11q0 -7 -2 -16l-11 -51q-3 -15 -18 -15h-221q-15 0 -15 11q0 3 2 12l12 55q3 15 17 15h42l296 582q6 11 18 11h96q17 0 18 -16l52 -577h39q15 0 15 -11zM344 271l-9 175q-2 39 -2 103q-26 -65 -44 -103l-83 -175h138z" />
    <glyph glyph-name="Aacute" unicode="&#xc1;" horiz-adv-x="556" 
d="M561 809q0 -10 -12 -13l-214 -47q-14 -3 -15 -3q-9 0 -13 12l-11 30q-3 15 -3 16q0 8 11 12l214 79q5 2 9 2q8 0 12 -13l18 -59q4 -13 4 -16zM536 82q0 -10 -2 -14l-11 -53q-3 -15 -18 -15h-217q-15 0 -15 11q0 5 2 14l12 53q3 15 17 15h51l-5 89h-179l-39 -89h49
q15 0 15 -11q0 -7 -2 -16l-11 -51q-3 -15 -18 -15h-221q-15 0 -15 11q0 3 2 12l12 55q3 15 17 15h42l296 582q6 11 18 11h96q17 0 18 -16l52 -577h39q15 0 15 -11zM344 271l-9 175q-2 39 -2 103q-26 -65 -44 -103l-83 -175h138z" />
    <glyph glyph-name="Acircumflex" unicode="&#xc2;" horiz-adv-x="556" 
d="M523 794q0 -4 -7 -12l-27 -30q-7 -10 -13 -10t-13 4l-74 42l-102 -41q-15 -6 -17 -6q-6 0 -12 11l-17 31q-7 13 -7 17q0 6 10 12l146 81q14 8 18 8q2 0 11 -8l93 -82q11 -10 11 -17zM536 82q0 -10 -2 -14l-11 -53q-3 -15 -18 -15h-217q-15 0 -15 11q0 5 2 14l12 53
q3 15 17 15h51l-5 89h-179l-39 -89h49q15 0 15 -11q0 -7 -2 -16l-11 -51q-3 -15 -18 -15h-221q-15 0 -15 11q0 3 2 12l12 55q3 15 17 15h42l296 582q6 11 18 11h96q17 0 18 -16l52 -577h39q15 0 15 -11zM344 271l-9 175q-2 39 -2 103q-26 -65 -44 -103l-83 -175h138z" />
    <glyph glyph-name="Atilde" unicode="&#xc3;" horiz-adv-x="556" 
d="M543 840q0 -7 -18 -27q-45 -49 -97 -49q-24 0 -71 19q-17 7 -29 7q-20 0 -42 -23q-7 -7 -11 -7q-2 0 -11 6l-35 29q-5 3 -5 9t22 29q43 46 90 46q24 0 73 -18q19 -7 34 -7q21 0 41 23q5 6 9 6t10 -5l32 -27q8 -5 8 -11zM536 82q0 -10 -2 -14l-11 -53q-3 -15 -18 -15h-217
q-15 0 -15 11q0 5 2 14l12 53q3 15 17 15h51l-5 89h-179l-39 -89h49q15 0 15 -11q0 -7 -2 -16l-11 -51q-3 -15 -18 -15h-221q-15 0 -15 11q0 3 2 12l12 55q3 15 17 15h42l296 582q6 11 18 11h96q17 0 18 -16l52 -577h39q15 0 15 -11zM344 271l-9 175q-2 39 -2 103
q-26 -65 -44 -103l-83 -175h138z" />
    <glyph glyph-name="Adieresis" unicode="&#xc4;" horiz-adv-x="556" 
d="M559 821q0 -29 -21 -50t-51 -21q-29 0 -50 21t-21 50q0 30 21 51t51 21q29 0 50 -21t21 -51zM361 822q0 -30 -21 -51t-51 -21q-29 0 -50 21t-21 50q0 31 21 51.5t51 20.5q29 0 50 -21t21 -50zM536 82q0 -10 -2 -14l-11 -53q-3 -15 -18 -15h-217q-15 0 -15 11q0 5 2 14
l12 53q3 15 17 15h51l-5 89h-179l-39 -89h49q15 0 15 -11q0 -7 -2 -16l-11 -51q-3 -15 -18 -15h-221q-15 0 -15 11q0 3 2 12l12 55q3 15 17 15h42l296 582q6 11 18 11h96q17 0 18 -16l52 -577h39q15 0 15 -11zM344 271l-9 175q-2 39 -2 103q-26 -65 -44 -103l-83 -175h138z
" />
    <glyph glyph-name="Aring" unicode="&#xc5;" horiz-adv-x="556" 
d="M482 835q0 -45 -31.5 -76.5t-76.5 -31.5t-76.5 31.5t-31.5 76.5t31.5 76.5t77.5 31.5q44 0 75.5 -32t31.5 -76zM536 82q0 -10 -2 -14l-11 -53q-3 -15 -18 -15h-217q-15 0 -15 11q0 5 2 14l12 53q3 15 17 15h51l-5 89h-179l-39 -89h49q15 0 15 -11q0 -7 -2 -16l-11 -51
q-3 -15 -18 -15h-221q-15 0 -15 11q0 3 2 12l12 55q3 15 17 15h42l296 582q6 11 18 11h96q17 0 18 -16l52 -577h39q15 0 15 -11zM417 835q0 18 -12.5 31t-31.5 13q-17 0 -30 -13t-13 -31t13 -31t30 -13q19 0 31.5 12.5t12.5 31.5zM344 271l-9 175q-2 39 -2 103
q-26 -65 -44 -103l-83 -175h138z" />
    <glyph glyph-name="AE" unicode="&#xc6;" horiz-adv-x="741" 
d="M793 675q0 -1 -3 -15l-32 -151q-3 -14 -17 -14h-62q-17 0 -17 11q0 6 2 15l13 61h-138l-36 -172h174q13 0 13 -11q0 -5 -2 -14l-14 -64q-3 -14 -17 -14h-176l-44 -203h142l18 81q3 14 17 14h62q17 0 17 -11q0 -6 -2 -15l-34 -159q-3 -14 -18 -14h-399q-15 0 -15 11
q0 5 2 14l11 50q3 14 17 14h52l21 99h-159l-58 -99h45q17 0 17 -12q0 -2 -2 -11l-11 -52q-3 -14 -18 -14h-215q-17 0 -17 11q0 3 2 12l12 55q3 15 17 15h43l372 583q6 10 19 10h401q17 0 17 -11zM426 627q-37 -73 -65 -119l-142 -229h129l47 223q10 47 31 125z" />
    <glyph glyph-name="Ccedilla" unicode="&#xc7;" 
d="M549 646q0 -10 -3 -19l-25 -121q-3 -14 -18 -14h-67q-17 0 -17 11l1 9l3 11l14 67q-24 8 -48 8q-78 0 -126 -83q-34 -58 -54.5 -139.5t-20.5 -157.5q0 -65 24 -92.5t81 -27.5q21 0 45 5l18 82q3 14 18 14h66q17 0 17 -11q0 -6 -2 -15l-29 -136q-3 -16 -33 -27
q-70 -26 -119 -27l-12 -40q61 -8 61 -66q0 -47 -32 -75t-87 -28q-32 0 -56.5 5.5t-24.5 13.5q0 1 3 11l12 40q1 7 6 7q3 0 13 -4q15 -6 32 -6q37 0 37 29q0 18 -39 21q-20 2 -20 8q0 2 3 11l25 78q-142 37 -142 231q0 110 31 211t85 168q85 105 224 105q54 0 105 -18.5
t51 -38.5z" />
    <glyph glyph-name="Egrave" unicode="&#xc8;" 
d="M457 809q0 -4 -11 -19l-22 -30q-10 -13 -17 -13q-3 0 -15 3l-193 48q-8 2 -8 8q0 3 12 20l43 60q9 13 18 13q2 0 8 -2l6 -4l172 -75q7 -3 7 -9zM553 675q0 -1 -3 -15l-32 -151q-3 -14 -18 -14h-62q-17 0 -17 11q0 1 3 15l13 61h-139l-36 -172h174q14 0 14 -11
q0 -5 -2 -14l-14 -64q-3 -14 -18 -14h-176l-44 -203h143l17 81q3 14 18 14h62q17 0 17 -11q0 -1 -3 -15l-33 -158q-3 -15 -18 -15h-402q-15 0 -15 11q0 4 2 14l11 53q3 15 18 15h54l106 500h-51q-14 0 -14 11q0 5 2 14l12 54q3 14 17 14h397q17 0 17 -11z" />
    <glyph glyph-name="Eacute" unicode="&#xc9;" 
d="M543 809q0 -10 -12 -13l-214 -47q-14 -3 -15 -3q-9 0 -13 12l-11 30q-3 15 -3 16q0 8 11 12l214 79q5 2 9 2q8 0 12 -13l18 -59q4 -13 4 -16zM553 675q0 -1 -3 -15l-32 -151q-3 -14 -18 -14h-62q-17 0 -17 11q0 1 3 15l13 61h-139l-36 -172h174q14 0 14 -11q0 -5 -2 -14
l-14 -64q-3 -14 -18 -14h-176l-44 -203h143l17 81q3 14 18 14h62q17 0 17 -11q0 -1 -3 -15l-33 -158q-3 -15 -18 -15h-402q-15 0 -15 11q0 4 2 14l11 53q3 15 18 15h54l106 500h-51q-14 0 -14 11q0 5 2 14l12 54q3 14 17 14h397q17 0 17 -11z" />
    <glyph glyph-name="Ecircumflex" unicode="&#xca;" 
d="M510 794q0 -4 -7 -12l-27 -30q-7 -10 -13 -10t-13 4l-74 42l-102 -41q-15 -6 -17 -6q-6 0 -12 11l-17 31q-7 13 -7 17q0 6 10 12l146 81q14 8 18 8q2 0 11 -8l93 -82q11 -10 11 -17zM553 675q0 -1 -3 -15l-32 -151q-3 -14 -18 -14h-62q-17 0 -17 11q0 1 3 15l13 61h-139
l-36 -172h174q14 0 14 -11q0 -5 -2 -14l-14 -64q-3 -14 -18 -14h-176l-44 -203h143l17 81q3 14 18 14h62q17 0 17 -11q0 -1 -3 -15l-33 -158q-3 -15 -18 -15h-402q-15 0 -15 11q0 4 2 14l11 53q3 15 18 15h54l106 500h-51q-14 0 -14 11q0 5 2 14l12 54q3 14 17 14h397
q17 0 17 -11z" />
    <glyph glyph-name="Edieresis" unicode="&#xcb;" 
d="M541 821q0 -29 -21 -50t-51 -21q-29 0 -50 21t-21 50q0 30 21 51t51 21q29 0 50 -21t21 -51zM343 822q0 -30 -21 -51t-51 -21q-29 0 -50 21t-21 50q0 31 21 51.5t51 20.5q29 0 50 -21t21 -50zM553 675q0 -1 -3 -15l-32 -151q-3 -14 -18 -14h-62q-17 0 -17 11q0 1 3 15
l13 61h-139l-36 -172h174q14 0 14 -11q0 -5 -2 -14l-14 -64q-3 -14 -18 -14h-176l-44 -203h143l17 81q3 14 18 14h62q17 0 17 -11q0 -1 -3 -15l-33 -158q-3 -15 -18 -15h-402q-15 0 -15 11q0 4 2 14l11 53q3 15 18 15h54l106 500h-51q-14 0 -14 11q0 5 2 14l12 54
q3 14 17 14h397q17 0 17 -11z" />
    <glyph glyph-name="Igrave" unicode="&#xcc;" horiz-adv-x="352" 
d="M381 816q0 -3 -5 -17l-12 -33q-4 -12 -13 -12q-7 0 -18 3l-188 51q-9 2 -9 8q0 3 7 20l23 57q5 12 14 12q6 0 18 -5l174 -74q9 -4 9 -10zM402 675q0 -5 -2 -14l-12 -53q-3 -15 -17 -15h-60l-107 -500h58q14 0 14 -11q0 -4 -1 -8l-2 -8l-11 -51q-3 -15 -17 -15h-244
q-15 0 -15 11q0 4 2 14l11 53q3 15 18 15h60l107 500h-58q-14 0 -14 11q0 5 2 14l12 54q3 14 17 14h245q14 0 14 -11z" />
    <glyph glyph-name="Iacute" unicode="&#xcd;" horiz-adv-x="352" 
d="M460 809q0 -10 -12 -13l-214 -47q-14 -3 -15 -3q-9 0 -13 12l-11 30q-3 15 -3 16q0 8 11 12l214 79q5 2 9 2q8 0 12 -13l18 -59q4 -13 4 -16zM402 675q0 -5 -2 -14l-12 -53q-3 -15 -17 -15h-60l-107 -500h58q14 0 14 -11q0 -4 -1 -8l-2 -8l-11 -51q-3 -15 -17 -15h-244
q-15 0 -15 11q0 4 2 14l11 53q3 15 18 15h60l107 500h-58q-14 0 -14 11q0 5 2 14l12 54q3 14 17 14h245q14 0 14 -11z" />
    <glyph glyph-name="Icircumflex" unicode="&#xce;" horiz-adv-x="352" 
d="M435 794q0 -4 -7 -12l-27 -30q-7 -10 -13 -10t-13 4l-74 42l-102 -41q-15 -6 -17 -6q-6 0 -12 11l-17 31q-7 13 -7 17q0 6 10 12l146 81q14 8 18 8q2 0 11 -8l93 -82q11 -10 11 -17zM402 675q0 -5 -2 -14l-12 -53q-3 -15 -17 -15h-60l-107 -500h58q14 0 14 -11
q0 -4 -1 -8l-2 -8l-11 -51q-3 -15 -17 -15h-244q-15 0 -15 11q0 4 2 14l11 53q3 15 18 15h60l107 500h-58q-14 0 -14 11q0 5 2 14l12 54q3 14 17 14h245q14 0 14 -11z" />
    <glyph glyph-name="Idieresis" unicode="&#xcf;" horiz-adv-x="352" 
d="M452 821q0 -29 -21 -50t-50 -21q-30 0 -51 21t-21 50q0 30 21 51t51 21q29 0 50 -21t21 -51zM282 822q0 -30 -21 -51t-51 -21q-29 0 -50 21t-21 50q0 31 21 51.5t51 20.5q29 0 50 -21t21 -50zM402 675q0 -5 -2 -14l-12 -53q-3 -15 -17 -15h-60l-107 -500h58q14 0 14 -11
q0 -4 -1 -8l-2 -8l-11 -51q-3 -15 -17 -15h-244q-15 0 -15 11q0 4 2 14l11 53q3 15 18 15h60l107 500h-58q-14 0 -14 11q0 5 2 14l12 54q3 14 17 14h245q14 0 14 -11z" />
    <glyph glyph-name="Eth" unicode="&#xd0;" horiz-adv-x="611" 
d="M597 463q0 -109 -38.5 -220.5t-95.5 -168.5q-42 -41 -100 -57.5t-162 -16.5h-204q-15 0 -15 11q0 3 2 14l12 53q3 15 17 15h54l48 224h-51q-17 0 -17 11q0 2 1 6l1 6l11 48q3 14 17 14h56l41 191h-52q-14 0 -14 11q0 5 2 14l12 54q3 14 17 14h204q66 0 98 -5
q55 -9 89 -38q67 -56 67 -180zM465 463q0 87 -54 110q-23 9 -80 9h-33l-38 -180h97q17 0 17 -11q0 -5 -2 -14l-10 -46q-3 -14 -18 -14h-102l-46 -213h33q112 0 156 60q33 45 56.5 133.5t23.5 165.5z" />
    <glyph glyph-name="Ntilde" unicode="&#xd1;" horiz-adv-x="648" 
d="M605 840q0 -7 -18 -27q-45 -49 -97 -49q-24 0 -71 19q-17 7 -29 7q-20 0 -42 -23q-7 -7 -11 -7q-2 0 -11 6l-35 29q-5 3 -5 9t22 29q43 46 90 46q24 0 73 -18q19 -7 34 -7q21 0 41 23q5 6 9 6t10 -5l32 -27q8 -5 8 -11zM708 675q0 -5 -1 -8l-1 -6l-12 -53q-3 -15 -18 -15
h-54l-123 -578q-3 -15 -17 -15h-65q-14 0 -18 13l-116 362q-15 47 -25 117q-8 -59 -23 -129l-57 -270h52q13 0 13 -11q0 -7 -2 -16l-11 -51q-3 -15 -18 -15h-216q-15 0 -15 11q0 4 2 14l11 53q3 15 18 15h54l106 500h-52q-13 0 -13 11q0 5 2 14l12 54q3 14 17 14h141
q14 0 18 -13l107 -331q21 -66 33 -127q11 84 21 132l52 246h-52q-13 0 -13 11q0 5 2 14l12 54q3 14 18 14h217q14 0 14 -11z" />
    <glyph glyph-name="Ograve" unicode="&#xd2;" horiz-adv-x="574" 
d="M491 816q0 -3 -5 -17l-12 -33q-4 -12 -13 -12q-7 0 -18 3l-188 51q-9 2 -9 8q0 3 7 20l23 57q5 12 14 12q6 0 18 -5l174 -74q9 -4 9 -10zM564 498q0 -111 -34 -226t-87 -183q-83 -106 -211 -106q-90 0 -138 53t-48 153q0 110 34 225t87 183q83 106 213 106
q88 0 136 -53.5t48 -151.5zM432 496q0 56 -15.5 80.5t-52.5 24.5q-67 0 -119 -102q-30 -58 -48.5 -144.5t-18.5 -164.5q0 -105 66 -105q68 0 120 101q30 58 49 145t19 165z" />
    <glyph glyph-name="Oacute" unicode="&#xd3;" horiz-adv-x="574" 
d="M570 809q0 -10 -12 -13l-214 -47q-14 -3 -15 -3q-9 0 -13 12l-11 30q-3 15 -3 16q0 8 11 12l214 79q5 2 9 2q8 0 12 -13l18 -59q4 -13 4 -16zM564 498q0 -111 -34 -226t-87 -183q-83 -106 -211 -106q-90 0 -138 53t-48 153q0 110 34 225t87 183q83 106 213 106
q88 0 136 -53.5t48 -151.5zM432 496q0 56 -15.5 80.5t-52.5 24.5q-67 0 -119 -102q-30 -58 -48.5 -144.5t-18.5 -164.5q0 -105 66 -105q68 0 120 101q30 58 49 145t19 165z" />
    <glyph glyph-name="Ocircumflex" unicode="&#xd4;" horiz-adv-x="574" 
d="M546 794q0 -4 -7 -12l-27 -30q-7 -10 -13 -10t-13 4l-74 42l-102 -41q-15 -6 -17 -6q-6 0 -12 11l-17 31q-7 13 -7 17q0 6 10 12l146 81q14 8 18 8q2 0 11 -8l93 -82q11 -10 11 -17zM564 498q0 -111 -34 -226t-87 -183q-83 -106 -211 -106q-90 0 -138 53t-48 153
q0 110 34 225t87 183q83 106 213 106q88 0 136 -53.5t48 -151.5zM432 496q0 56 -15.5 80.5t-52.5 24.5q-67 0 -119 -102q-30 -58 -48.5 -144.5t-18.5 -164.5q0 -105 66 -105q68 0 120 101q30 58 49 145t19 165z" />
    <glyph glyph-name="Otilde" unicode="&#xd5;" horiz-adv-x="574" 
d="M566 840q0 -7 -18 -27q-45 -49 -97 -49q-24 0 -71 19q-17 7 -29 7q-20 0 -42 -23q-7 -7 -11 -7q-2 0 -11 6l-35 29q-5 3 -5 9t22 29q43 46 90 46q24 0 73 -18q19 -7 34 -7q21 0 41 23q5 6 9 6t10 -5l32 -27q8 -5 8 -11zM564 498q0 -111 -34 -226t-87 -183
q-83 -106 -211 -106q-90 0 -138 53t-48 153q0 110 34 225t87 183q83 106 213 106q88 0 136 -53.5t48 -151.5zM432 496q0 56 -15.5 80.5t-52.5 24.5q-67 0 -119 -102q-30 -58 -48.5 -144.5t-18.5 -164.5q0 -105 66 -105q68 0 120 101q30 58 49 145t19 165z" />
    <glyph glyph-name="Odieresis" unicode="&#xd6;" horiz-adv-x="574" 
d="M577 821q0 -29 -21 -50t-51 -21q-29 0 -50 21t-21 50q0 30 21 51t51 21q29 0 50 -21t21 -51zM379 822q0 -30 -21 -51t-51 -21q-29 0 -50 21t-21 50q0 31 21 51.5t51 20.5q29 0 50 -21t21 -50zM564 498q0 -111 -34 -226t-87 -183q-83 -106 -211 -106q-90 0 -138 53
t-48 153q0 110 34 225t87 183q83 106 213 106q88 0 136 -53.5t48 -151.5zM432 496q0 56 -15.5 80.5t-52.5 24.5q-67 0 -119 -102q-30 -58 -48.5 -144.5t-18.5 -164.5q0 -105 66 -105q68 0 120 101q30 58 49 145t19 165z" />
    <glyph glyph-name="multiply" unicode="&#xd7;" horiz-adv-x="519" 
d="M451 131q0 -5 -7 -12l-48 -47q-8 -8 -12 -8t-12 8l-113 115l-113 -115q-8 -8 -12 -8q-5 0 -12 8l-48 47q-7 8 -7 12q0 5 7 12l115 114l-115 113q-7 7 -7 12q0 4 7 12l48 47q7 8 12 8q4 0 12 -8l113 -115l113 115q8 8 12 8t12 -8l48 -47q7 -7 7 -12t-7 -12l-115 -113
l115 -114q7 -6 7 -12z" />
    <glyph glyph-name="Oslash" unicode="&#xd8;" horiz-adv-x="574" 
d="M575 706q0 -4 -4 -12l-41 -62q34 -54 34 -137q0 -109 -34 -223.5t-87 -182.5q-82 -106 -211 -106q-55 0 -98 23l-31 -51q-5 -9 -12 -9q-4 0 -12 4l-33 21q-10 6 -10 12t4 12l39 61q-33 56 -33 132q0 110 34 225.5t87 183.5q82 106 210 106q60 0 98 -22l34 53q6 9 11 9
q6 0 12 -4l33 -21q10 -6 10 -12zM424 587q-16 21 -55 21q-90 0 -149 -148q-57 -144 -56 -284zM447 492v19l-259 -411q19 -22 56 -22q89 0 149 144q54 130 54 270z" />
    <glyph glyph-name="Ugrave" unicode="&#xd9;" horiz-adv-x="648" 
d="M528 816q0 -3 -5 -17l-12 -33q-4 -12 -13 -12q-7 0 -18 3l-188 51q-9 2 -9 8q0 3 7 20l23 57q5 12 14 12q6 0 18 -5l174 -74q9 -4 9 -10zM715 675q0 -5 -2 -14l-12 -53q-3 -15 -18 -15h-53l-77 -361q-18 -86 -34.5 -121.5t-51.5 -64.5q-72 -60 -184 -60q-202 0 -202 160
q0 39 10 86l76 361h-52q-13 0 -13 11q0 4 2 14l11 54q3 14 18 14h233q13 0 13 -11q0 -4 -2 -14l-11 -53q-3 -15 -18 -15h-54l-77 -361q-8 -38 -8 -68q0 -73 88 -73q103 0 132 139l77 363h-52q-13 0 -13 11q0 4 2 14l11 54q3 14 18 14h229q14 0 14 -11z" />
    <glyph glyph-name="Uacute" unicode="&#xda;" horiz-adv-x="648" 
d="M608 809q0 -10 -12 -13l-214 -47q-14 -3 -15 -3q-9 0 -13 12l-11 30q-3 15 -3 16q0 8 11 12l214 79q5 2 9 2q8 0 12 -13l18 -59q4 -13 4 -16zM715 675q0 -5 -2 -14l-12 -53q-3 -15 -18 -15h-53l-77 -361q-18 -86 -34.5 -121.5t-51.5 -64.5q-72 -60 -184 -60
q-202 0 -202 160q0 39 10 86l76 361h-52q-13 0 -13 11q0 4 2 14l11 54q3 14 18 14h233q13 0 13 -11q0 -4 -2 -14l-11 -53q-3 -15 -18 -15h-54l-77 -361q-8 -38 -8 -68q0 -73 88 -73q103 0 132 139l77 363h-52q-13 0 -13 11q0 4 2 14l11 54q3 14 18 14h229q14 0 14 -11z" />
    <glyph glyph-name="Ucircumflex" unicode="&#xdb;" horiz-adv-x="648" 
d="M583 794q0 -4 -7 -12l-27 -30q-7 -10 -13 -10t-13 4l-74 42l-102 -41q-15 -6 -17 -6q-6 0 -12 11l-17 31q-7 13 -7 17q0 6 10 12l146 81q14 8 18 8q2 0 11 -8l93 -82q11 -10 11 -17zM715 675q0 -5 -2 -14l-12 -53q-3 -15 -18 -15h-53l-77 -361q-18 -86 -34.5 -121.5
t-51.5 -64.5q-72 -60 -184 -60q-202 0 -202 160q0 39 10 86l76 361h-52q-13 0 -13 11q0 4 2 14l11 54q3 14 18 14h233q13 0 13 -11q0 -4 -2 -14l-11 -53q-3 -15 -18 -15h-54l-77 -361q-8 -38 -8 -68q0 -73 88 -73q103 0 132 139l77 363h-52q-13 0 -13 11q0 4 2 14l11 54
q3 14 18 14h229q14 0 14 -11z" />
    <glyph glyph-name="Udieresis" unicode="&#xdc;" horiz-adv-x="648" 
d="M618 821q0 -29 -21 -50t-51 -21q-29 0 -50 21t-21 50q0 30 21 51t51 21q29 0 50 -21t21 -51zM420 822q0 -30 -21 -51t-51 -21q-29 0 -50 21t-21 50q0 31 21 51.5t51 20.5q29 0 50 -21t21 -50zM715 675q0 -5 -2 -14l-12 -53q-3 -15 -18 -15h-53l-77 -361
q-18 -86 -34.5 -121.5t-51.5 -64.5q-72 -60 -184 -60q-202 0 -202 160q0 39 10 86l76 361h-52q-13 0 -13 11q0 4 2 14l11 54q3 14 18 14h233q13 0 13 -11q0 -4 -2 -14l-11 -53q-3 -15 -18 -15h-54l-77 -361q-8 -38 -8 -68q0 -73 88 -73q103 0 132 139l77 363h-52
q-13 0 -13 11q0 4 2 14l11 54q3 14 18 14h229q14 0 14 -11z" />
    <glyph glyph-name="Yacute" unicode="&#xdd;" 
d="M561 809q0 -10 -12 -13l-214 -47q-14 -3 -15 -3q-9 0 -13 12l-11 30q-3 15 -3 16q0 8 11 12l214 79q5 2 9 2q8 0 12 -13l18 -59q4 -13 4 -16zM622 675q0 -5 -2 -15l-11 -53q-3 -14 -18 -14h-46l-224 -312l-40 -188h66q13 0 13 -11q0 -7 -2 -16l-11 -51q-3 -15 -18 -15
h-259q-15 0 -15 10q0 6 2 15l12 53q3 15 18 15h67l40 189l-95 311h-44q-17 0 -17 11q0 2 3 16l11 51q3 15 17 15h124q16 0 20 -15l43 -161q14 -52 20 -112q40 74 64 108l119 170q7 10 20 10h126q17 0 17 -11z" />
    <glyph glyph-name="Thorn" unicode="&#xde;" horiz-adv-x="556" 
d="M549 395q0 -61 -28.5 -114.5t-77.5 -83.5q-66 -41 -169 -41h-68l-14 -63h62q14 0 14 -11q0 -4 -1 -8l-2 -8l-10 -51q-3 -15 -18 -15h-240q-15 0 -15 11q0 4 2 14l11 53q3 15 18 15h54l106 500h-52q-13 0 -13 11q0 5 2 14l12 54q3 14 17 14h232q13 0 13 -11q0 -5 -2 -14
l-11 -48q-3 -15 -18 -15h-53l-11 -48h50q111 0 158 -35q52 -39 52 -120zM420 383q0 38 -21.5 54t-72.5 16h-57l-41 -191h47q76 0 110.5 34.5t34.5 86.5z" />
    <glyph glyph-name="germandbls" unicode="&#xdf;" horiz-adv-x="593" 
d="M546 165q0 -81 -57.5 -130t-152.5 -49q-45 0 -86.5 10.5t-41.5 21.5q0 4 2 10l22 66q2 8 11 8q10 0 46 -12t59 -12q40 0 63 18t23 49q0 24 -12 41.5t-52 52.5q-50 44 -65.5 67.5t-15.5 56.5q0 36 17 63.5t62 62.5q57 45 57 87q0 50 -67 50q-57 0 -87 -37q-17 -21 -30 -83
l-109 -513q-22 -101 -58 -142q-50 -56 -135 -56t-85 17q0 4 2 11l21 71q3 7 7 7l11 -2t26 -2q44 0 61.5 22.5t33.5 95.5l103 484q24 114 70 160q65 65 179 65q83 0 127.5 -35t44.5 -99q0 -43 -19 -74.5t-70 -72.5q-41 -33 -41 -58q0 -21 50 -65t68 -76.5t18 -78.5z" />
    <glyph glyph-name="agrave" unicode="&#xe0;" horiz-adv-x="518" 
d="M397 595q0 -4 -11 -19l-15 -20q-8 -11 -13 -11t-17 6l-154 74q-9 4 -9 14q0 7 6 16l39 56q7 10 17 10q4 0 14 -8l137 -110q6 -4 6 -8zM487 484q0 -2 -2 -11l-67 -314q-10 -47 -10 -70h58q13 0 13 -9q0 -4 -2 -13l-12 -55q-3 -12 -14 -12h-64q-48 0 -67 15.5t-19 55.5
q0 14 1 22q-70 -110 -167 -110q-112 0 -112 163q0 148 70.5 256.5t167.5 108.5q66 0 110 -54l12 27q4 10 14 10h78q12 0 12 -10zM346 385q-41 37 -73 37q-46 0 -77 -58q-20 -37 -36 -106.5t-16 -116.5q0 -60 42 -60q51 0 91 54q24 32 35 87z" />
    <glyph glyph-name="aacute" unicode="&#xe1;" horiz-adv-x="519" 
d="M497 633q0 -7 -13 -12l-188 -68q-14 -5 -16 -5q-7 0 -11 12l-13 29q-5 11 -5 16q0 6 11 12l178 95q11 6 16 6q7 0 12 -12l24 -58q5 -12 5 -15zM487 484q0 -2 -2 -11l-67 -314q-10 -47 -10 -70h58q13 0 13 -9q0 -4 -2 -13l-12 -55q-3 -12 -14 -12h-64q-48 0 -67 15.5
t-19 55.5q0 14 1 22q-70 -110 -167 -110q-112 0 -112 163q0 148 70.5 256.5t167.5 108.5q66 0 110 -54l12 27q4 10 14 10h78q12 0 12 -10zM346 385q-41 37 -73 37q-46 0 -77 -58q-20 -37 -36 -106.5t-16 -116.5q0 -60 42 -60q51 0 91 54q24 32 35 87z" />
    <glyph glyph-name="acircumflex" unicode="&#xe2;" horiz-adv-x="519" 
d="M471 600q0 -4 -6 -11l-27 -30q-8 -9 -13 -9t-12 5l-71 53l-94 -52q-13 -7 -17 -7q-6 0 -12 11l-16 30q-7 13 -7 16q0 5 10 12l137 92q10 7 17 7q4 0 11 -7l89 -93q11 -11 11 -17zM487 484q0 -2 -2 -11l-67 -314q-10 -47 -10 -70h58q13 0 13 -9q0 -4 -2 -13l-12 -55
q-3 -12 -14 -12h-64q-48 0 -67 15.5t-19 55.5q0 14 1 22q-70 -110 -167 -110q-112 0 -112 163q0 148 70.5 256.5t167.5 108.5q66 0 110 -54l12 27q4 10 14 10h78q12 0 12 -10zM346 385q-41 37 -73 37q-46 0 -77 -58q-20 -37 -36 -106.5t-16 -116.5q0 -60 42 -60q51 0 91 54
q24 32 35 87z" />
    <glyph glyph-name="atilde" unicode="&#xe3;" horiz-adv-x="519" 
d="M491 654q0 -6 -18 -28q-44 -54 -96 -54q-31 0 -63 25q-15 12 -27 12q-21 0 -42 -30q-6 -8 -10 -8t-11 6l-34 28q-5 5 -5 9t21 31q38 50 91 50q30 0 66 -23q19 -12 28 -12q20 0 42 29q5 7 9 7t9 -5l32 -26q8 -7 8 -11zM487 484q0 -2 -2 -11l-67 -314q-10 -47 -10 -70h58
q13 0 13 -9q0 -4 -2 -13l-12 -55q-3 -12 -14 -12h-64q-48 0 -67 15.5t-19 55.5q0 14 1 22q-70 -110 -167 -110q-112 0 -112 163q0 148 70.5 256.5t167.5 108.5q66 0 110 -54l12 27q4 10 14 10h78q12 0 12 -10zM346 385q-41 37 -73 37q-46 0 -77 -58q-20 -37 -36 -106.5
t-16 -116.5q0 -60 42 -60q51 0 91 54q24 32 35 87z" />
    <glyph glyph-name="adieresis" unicode="&#xe4;" horiz-adv-x="519" 
d="M518 634q0 -29 -20.5 -49.5t-49.5 -20.5q-28 0 -48.5 20.5t-20.5 48.5q0 29 20.5 49.5t50.5 20.5q28 0 48 -20.5t20 -48.5zM326 634q0 -29 -20.5 -49.5t-49.5 -20.5q-28 0 -48.5 20.5t-20.5 48.5q0 29 20.5 49.5t50.5 20.5q28 0 48 -20.5t20 -48.5zM487 484q0 -2 -2 -11
l-67 -314q-10 -47 -10 -70h58q13 0 13 -9q0 -4 -2 -13l-12 -55q-3 -12 -14 -12h-64q-48 0 -67 15.5t-19 55.5q0 14 1 22q-70 -110 -167 -110q-112 0 -112 163q0 148 70.5 256.5t167.5 108.5q66 0 110 -54l12 27q4 10 14 10h78q12 0 12 -10zM346 385q-41 37 -73 37
q-46 0 -77 -58q-20 -37 -36 -106.5t-16 -116.5q0 -60 42 -60q51 0 91 54q24 32 35 87z" />
    <glyph glyph-name="aring" unicode="&#xe5;" horiz-adv-x="519" 
d="M436 647q0 -43 -30.5 -74t-74.5 -31q-43 0 -73.5 31t-30.5 74q0 44 30.5 74.5t75.5 30.5q42 0 72.5 -31t30.5 -74zM487 484q0 -2 -2 -11l-67 -314q-10 -47 -10 -70h58q13 0 13 -9q0 -4 -2 -13l-12 -55q-3 -12 -14 -12h-64q-48 0 -67 15.5t-19 55.5q0 14 1 22
q-70 -110 -167 -110q-112 0 -112 163q0 148 70.5 256.5t167.5 108.5q66 0 110 -54l12 27q4 10 14 10h78q12 0 12 -10zM373 647q0 17 -12.5 29.5t-29.5 12.5t-29.5 -12.5t-12.5 -30.5q0 -17 12.5 -29.5t29.5 -12.5t29.5 13t12.5 30zM346 385q-41 37 -73 37q-46 0 -77 -58
q-20 -37 -36 -106.5t-16 -116.5q0 -60 42 -60q51 0 91 54q24 32 35 87z" />
    <glyph glyph-name="ae" unicode="&#xe6;" horiz-adv-x="722" 
d="M696 379q0 -125 -153 -158q-56 -12 -144 -12q-6 -28 -6 -51q0 -35 22 -56t59 -21q38 0 111 38q9 4 15 4q5 0 9 -8l24 -61q2 -8 2 -10q0 -6 -16 -15q-78 -46 -173 -46q-101 0 -147 77q-65 -77 -165 -77q-59 0 -94 35.5t-35 96.5q0 77 62 126q67 53 228 53l10 49q4 20 4 32
q0 47 -61 47q-48 0 -108 -30q-12 -6 -18 -6q-8 0 -11 11l-16 51q-3 10 -3 11q0 10 26 20q85 32 145 32q96 0 122 -68q78 68 164 68q69 0 108 -35t39 -97zM584 372q0 50 -52 50q-43 0 -75 -34.5t-44 -93.5q91 0 131 18.5t40 59.5zM277 210q-86 0 -122 -19.5t-36 -66.5
q0 -52 49 -52q79 0 99 92z" />
    <glyph glyph-name="ccedilla" unicode="&#xe7;" horiz-adv-x="408" 
d="M428 469q0 -3 -2 -12l-27 -127q-2 -11 -14 -11h-68q-13 0 -13 9q0 7 2 13l15 71q-12 1 -24 1q-56 0 -87 -42q-59 -80 -59 -204q0 -80 75 -80q32 0 69 18q12 6 17 6q4 0 7 -6l25 -66q3 -8 3 -10q0 -13 -42 -28.5t-83 -17.5l-11 -38q59 -8 59 -64q0 -46 -31 -73.5
t-84 -27.5q-79 0 -79 20q0 3 3 10l11 38q3 7 6 7t13 -4q14 -6 31 -6q36 0 36 28q0 19 -38 22q-19 2 -19 7q0 1 3 11l24 79q-120 36 -120 186q0 80 29.5 154t81.5 120q65 59 167 59q42 0 83 -14t41 -28z" />
    <glyph glyph-name="egrave" unicode="&#xe8;" horiz-adv-x="481" 
d="M416 595q0 -4 -11 -19l-15 -20q-8 -11 -13 -11t-17 6l-154 74q-9 4 -9 14q0 7 6 16l39 56q7 10 17 10q4 0 14 -8l137 -110q6 -4 6 -8zM455 379q0 -64 -43 -111.5t-119 -66.5q-52 -13 -147 -13q-1 -10 -1 -20q0 -87 87 -87q43 0 112 36q11 6 16 6t8 -7l25 -62q2 -5 2 -10
q0 -4 -17 -14q-78 -47 -178 -47q-83 0 -128.5 48t-45.5 137q0 159 98 263q75 80 185 80q68 0 107 -35t39 -97zM338 372q0 50 -47 50q-57 0 -96 -54q-21 -30 -35 -87q86 0 127 19q51 23 51 72z" />
    <glyph glyph-name="eacute" unicode="&#xe9;" horiz-adv-x="482" 
d="M489 633q0 -7 -13 -12l-188 -68q-14 -5 -16 -5q-7 0 -11 12l-13 29q-5 11 -5 16q0 6 11 12l178 95q11 6 16 6q7 0 12 -12l24 -58q5 -12 5 -15zM455 379q0 -64 -43 -111.5t-119 -66.5q-52 -13 -147 -13q-1 -10 -1 -20q0 -87 87 -87q43 0 112 36q11 6 16 6t8 -7l25 -62
q2 -5 2 -10q0 -4 -17 -14q-78 -47 -178 -47q-83 0 -128.5 48t-45.5 137q0 159 98 263q75 80 185 80q68 0 107 -35t39 -97zM338 372q0 50 -47 50q-57 0 -96 -54q-21 -30 -35 -87q86 0 127 19q51 23 51 72z" />
    <glyph glyph-name="ecircumflex" unicode="&#xea;" horiz-adv-x="481" 
d="M453 600q0 -4 -6 -11l-27 -30q-8 -9 -13 -9t-12 5l-71 53l-94 -52q-13 -7 -17 -7q-6 0 -12 11l-16 30q-7 13 -7 16q0 5 10 12l137 92q10 7 17 7q4 0 11 -7l89 -93q11 -11 11 -17zM455 379q0 -64 -43 -111.5t-119 -66.5q-52 -13 -147 -13q-1 -10 -1 -20q0 -87 87 -87
q43 0 112 36q11 6 16 6t8 -7l25 -62q2 -5 2 -10q0 -4 -17 -14q-78 -47 -178 -47q-83 0 -128.5 48t-45.5 137q0 159 98 263q75 80 185 80q68 0 107 -35t39 -97zM338 372q0 50 -47 50q-57 0 -96 -54q-21 -30 -35 -87q86 0 127 19q51 23 51 72z" />
    <glyph glyph-name="edieresis" unicode="&#xeb;" horiz-adv-x="481" 
d="M486 634q0 -29 -20.5 -49.5t-49.5 -20.5q-28 0 -48.5 20.5t-20.5 48.5q0 29 20.5 49.5t50.5 20.5q28 0 48 -20.5t20 -48.5zM294 634q0 -29 -20.5 -49.5t-49.5 -20.5q-28 0 -48.5 20.5t-20.5 48.5q0 29 20.5 49.5t50.5 20.5q28 0 48 -20.5t20 -48.5zM455 379
q0 -64 -43 -111.5t-119 -66.5q-52 -13 -147 -13q-1 -10 -1 -20q0 -87 87 -87q43 0 112 36q11 6 16 6t8 -7l25 -62q2 -5 2 -10q0 -4 -17 -14q-78 -47 -178 -47q-83 0 -128.5 48t-45.5 137q0 159 98 263q75 80 185 80q68 0 107 -35t39 -97zM338 372q0 50 -47 50q-57 0 -96 -54
q-21 -30 -35 -87q86 0 127 19q51 23 51 72z" />
    <glyph glyph-name="igrave" unicode="&#xec;" horiz-adv-x="278" 
d="M291 595q0 -4 -11 -19l-15 -20q-8 -11 -13 -11t-17 6l-154 74q-9 4 -9 14q0 7 6 16l39 56q7 10 17 10q4 0 14 -8l137 -110q6 -4 6 -8zM246 485l-1 -12l-82 -384h64q14 0 14 -9q0 -4 -2 -13l-12 -55q-3 -12 -14 -12h-80q-54 0 -73.5 18.5t-19.5 42.5q0 12 7 45l63 299h-76
q-14 0 -14 9q0 3 2 12l12 56q3 12 14 12h185q14 0 13 -9z" />
    <glyph glyph-name="iacute" unicode="&#xed;" horiz-adv-x="278" 
d="M361 633q0 -7 -13 -12l-188 -68q-14 -5 -16 -5q-7 0 -11 12l-13 29q-5 11 -5 16q0 6 11 12l178 95q11 6 16 6q7 0 12 -12l24 -58q5 -12 5 -15zM246 485l-1 -12l-82 -384h64q14 0 14 -9q0 -4 -2 -13l-12 -55q-3 -12 -14 -12h-80q-54 0 -73.5 18.5t-19.5 42.5q0 12 7 45
l63 299h-76q-14 0 -14 9q0 3 2 12l12 56q3 12 14 12h185q14 0 13 -9z" />
    <glyph glyph-name="icircumflex" unicode="&#xee;" horiz-adv-x="278" 
d="M323 600q0 -4 -6 -11l-27 -30q-8 -9 -13 -9t-12 5l-71 53l-94 -52q-13 -7 -17 -7q-6 0 -12 11l-16 30q-7 13 -7 16q0 5 10 12l137 92q10 7 17 7q4 0 11 -7l89 -93q11 -11 11 -17zM246 485l-1 -12l-82 -384h64q14 0 14 -9q0 -4 -2 -13l-12 -55q-3 -12 -14 -12h-80
q-54 0 -73.5 18.5t-19.5 42.5q0 12 7 45l63 299h-76q-14 0 -14 9q0 3 2 12l12 56q3 12 14 12h185q14 0 13 -9z" />
    <glyph glyph-name="idieresis" unicode="&#xef;" horiz-adv-x="278" 
d="M357 637q0 -29 -20 -51t-46 -22q-25 0 -42.5 19t-17.5 46q0 29 20 51t47 22q25 0 42 -19t17 -46zM206 637q0 -29 -20 -51t-46 -22q-25 0 -42.5 19t-17.5 46q0 29 20 51t47 22q25 0 42 -19t17 -46zM246 485l-1 -12l-82 -384h64q14 0 14 -9q0 -4 -2 -13l-12 -55
q-3 -12 -14 -12h-80q-54 0 -73.5 18.5t-19.5 42.5q0 12 7 45l63 299h-76q-14 0 -14 9q0 3 2 12l12 56q3 12 14 12h185q14 0 13 -9z" />
    <glyph glyph-name="eth" unicode="&#xf0;" 
d="M513 647q0 -6 -8 -9l-94 -28q59 -158 59 -274q0 -166 -98 -275q-70 -78 -179 -78q-168 0 -168 179q0 135 73.5 237t171.5 102q34 0 69 -20q-9 51 -23 99l-93 -28q-7 -2 -11 -2q-7 0 -9 8l-8 31q-3 8 -3 11q0 6 9 9l95 28q-18 43 -44 89q-2 2 -2 4q0 7 20 7h57
q20 0 28.5 -9.5t34.5 -61.5l93 27q7 2 11 2q7 0 9 -9l7 -28q3 -8 3 -11zM345 343q0 70 -62 70q-56 0 -87 -62q-18 -36 -31.5 -94.5t-13.5 -101.5q0 -74 60 -74q58 0 90 66q18 37 31 95.5t13 100.5z" />
    <glyph glyph-name="ntilde" unicode="&#xf1;" horiz-adv-x="537" 
d="M512 654q0 -6 -18 -28q-44 -54 -96 -54q-31 0 -63 25q-15 12 -27 12q-21 0 -42 -30q-6 -8 -10 -8t-11 6l-34 28q-5 5 -5 9t21 31q38 50 91 50q30 0 66 -23q19 -12 28 -12q20 0 42 29q5 7 9 7t9 -5l32 -26q8 -7 8 -11zM501 79q0 -3 -2 -12l-12 -55q-3 -12 -14 -12h-80
q-50 0 -68 13q-24 17 -24 50q0 16 6 43l45 200q9 40 9 60q0 40 -42 40q-89 0 -130 -192l-43 -202q-3 -12 -15 -12h-91q-14 0 -14 11q0 1 2 10l71 310q10 44 10 74h-61q-13 0 -13 9q0 10 8 43l6 25q3 12 14 12h129q17 0 19 -11q8 -22 8 -58v-18q47 58 86 81t88 23
q94 0 94 -104q0 -35 -10 -79l-54 -239h64q14 0 14 -10z" />
    <glyph glyph-name="ograve" unicode="&#xf2;" 
d="M411 595q0 -4 -11 -19l-15 -20q-8 -11 -13 -11t-17 6l-154 74q-9 4 -9 14q0 7 6 16l39 56q7 10 17 10q4 0 14 -8l137 -110q6 -4 6 -8zM469 333q0 -160 -99 -272q-69 -78 -179 -78q-81 0 -124.5 45.5t-43.5 130.5q0 161 96 269q74 83 186 83q77 0 120.5 -47.5t43.5 -130.5
zM343 343q0 70 -63 70q-52 0 -85 -62q-18 -34 -32 -94t-14 -102q0 -74 60 -74q59 0 91 66q17 35 30 95t13 101z" />
    <glyph glyph-name="oacute" unicode="&#xf3;" 
d="M498 633q0 -7 -13 -12l-188 -68q-14 -5 -16 -5q-7 0 -11 12l-13 29q-5 11 -5 16q0 6 11 12l178 95q11 6 16 6q7 0 12 -12l24 -58q5 -12 5 -15zM469 333q0 -160 -99 -272q-69 -78 -179 -78q-81 0 -124.5 45.5t-43.5 130.5q0 161 96 269q74 83 186 83q77 0 120.5 -47.5
t43.5 -130.5zM343 343q0 70 -63 70q-52 0 -85 -62q-18 -34 -32 -94t-14 -102q0 -74 60 -74q59 0 91 66q17 35 30 95t13 101z" />
    <glyph glyph-name="ocircumflex" unicode="&#xf4;" 
d="M461 600q0 -4 -6 -11l-27 -30q-8 -9 -13 -9t-12 5l-71 53l-94 -52q-13 -7 -17 -7q-6 0 -12 11l-16 30q-7 13 -7 16q0 5 10 12l137 92q10 7 17 7q4 0 11 -7l89 -93q11 -11 11 -17zM469 333q0 -160 -99 -272q-69 -78 -179 -78q-81 0 -124.5 45.5t-43.5 130.5q0 161 96 269
q74 83 186 83q77 0 120.5 -47.5t43.5 -130.5zM343 343q0 70 -63 70q-52 0 -85 -62q-18 -34 -32 -94t-14 -102q0 -74 60 -74q59 0 91 66q17 35 30 95t13 101z" />
    <glyph glyph-name="otilde" unicode="&#xf5;" 
d="M482 654q0 -6 -18 -28q-44 -54 -96 -54q-31 0 -63 25q-15 12 -27 12q-21 0 -42 -30q-6 -8 -10 -8t-11 6l-34 28q-5 5 -5 9t21 31q38 50 91 50q30 0 66 -23q19 -12 28 -12q20 0 42 29q5 7 9 7t9 -5l32 -26q8 -7 8 -11zM469 333q0 -160 -99 -272q-69 -78 -179 -78
q-81 0 -124.5 45.5t-43.5 130.5q0 161 96 269q74 83 186 83q77 0 120.5 -47.5t43.5 -130.5zM343 343q0 70 -63 70q-52 0 -85 -62q-18 -34 -32 -94t-14 -102q0 -74 60 -74q59 0 91 66q17 35 30 95t13 101z" />
    <glyph glyph-name="odieresis" unicode="&#xf6;" 
d="M495 634q0 -29 -20.5 -49.5t-49.5 -20.5q-28 0 -48.5 20.5t-20.5 48.5q0 29 20.5 49.5t50.5 20.5q28 0 48 -20.5t20 -48.5zM303 634q0 -29 -20.5 -49.5t-49.5 -20.5q-28 0 -48.5 20.5t-20.5 48.5q0 29 20.5 49.5t50.5 20.5q28 0 48 -20.5t20 -48.5zM469 333
q0 -160 -99 -272q-69 -78 -179 -78q-81 0 -124.5 45.5t-43.5 130.5q0 161 96 269q74 83 186 83q77 0 120.5 -47.5t43.5 -130.5zM343 343q0 70 -63 70q-52 0 -85 -62q-18 -34 -32 -94t-14 -102q0 -74 60 -74q59 0 91 66q17 35 30 95t13 101z" />
    <glyph glyph-name="divide" unicode="&#xf7;" horiz-adv-x="519" 
d="M330 429q0 -30 -20.5 -50.5t-50.5 -20.5q-29 0 -49.5 20.5t-20.5 49.5q0 30 20.5 50.5t50.5 20.5q29 0 49.5 -20.5t20.5 -49.5zM486 223q0 -12 -4 -14.5t-13 -2.5h-421q-12 0 -14.5 4t-2.5 13v67q0 12 4 14.5t13 2.5h421q12 0 14.5 -4t2.5 -13v-67zM329 86
q0 -29 -20.5 -50t-49.5 -21t-50 20.5t-21 49.5q0 30 20.5 50.5t50.5 20.5q29 0 49.5 -20.5t20.5 -49.5z" />
    <glyph glyph-name="oslash" unicode="&#xf8;" 
d="M489 511q0 -3 -4 -10l-44 -55q29 -48 29 -117q0 -157 -99 -268q-69 -78 -177 -78q-60 0 -100 24l-38 -48q-6 -7 -10 -7t-11 6l-24 20q-7 6 -7 9q0 5 4 10l41 51q-26 48 -26 116q0 155 96 264q73 83 183 83q54 0 94 -23l41 51q6 7 10 7q3 0 9 -5l26 -20q7 -5 7 -10z
M334 404q-23 15 -49 15q-67 0 -106.5 -88t-38.5 -180zM353 332v15l-195 -254q18 -18 49 -18q66 0 102 72q44 87 44 185z" />
    <glyph glyph-name="ugrave" unicode="&#xf9;" horiz-adv-x="537" 
d="M421 595q0 -4 -11 -19l-15 -20q-8 -11 -13 -11t-17 6l-154 74q-9 4 -9 14q0 7 6 16l39 56q7 10 17 10q4 0 14 -8l137 -110q6 -4 6 -8zM507 493q0 -8 -1 -10l-73 -320q-10 -44 -10 -74h59q13 0 13 -9q0 -4 -2 -13l-12 -55q-3 -12 -14 -12h-65q-48 0 -67 16t-19 56
q0 13 1 22q-76 -111 -173 -111q-99 0 -99 101q0 37 10 81l55 240h-66q-14 0 -14 9q0 4 2 13l12 56q2 11 14 11h174q14 0 14 -9q0 -5 -2 -14l-63 -279q-10 -44 -10 -61q0 -40 40 -40q92 0 133 193l39 183q3 13 16 16l88 19l11 1q9 0 9 -10z" />
    <glyph glyph-name="uacute" unicode="&#xfa;" horiz-adv-x="537" 
d="M530 633q0 -7 -13 -12l-188 -68q-14 -5 -16 -5q-7 0 -11 12l-13 29q-5 11 -5 16q0 6 11 12l178 95q11 6 16 6q7 0 12 -12l24 -58q5 -12 5 -15zM507 493q0 -8 -1 -10l-73 -320q-10 -44 -10 -74h59q13 0 13 -9q0 -4 -2 -13l-12 -55q-3 -12 -14 -12h-65q-48 0 -67 16t-19 56
q0 13 1 22q-76 -111 -173 -111q-99 0 -99 101q0 37 10 81l55 240h-66q-14 0 -14 9q0 4 2 13l12 56q2 11 14 11h174q14 0 14 -9q0 -5 -2 -14l-63 -279q-10 -44 -10 -61q0 -40 40 -40q92 0 133 193l39 183q3 13 16 16l88 19l11 1q9 0 9 -10z" />
    <glyph glyph-name="ucircumflex" unicode="&#xfb;" horiz-adv-x="537" 
d="M480 600q0 -4 -6 -11l-27 -30q-8 -9 -13 -9t-12 5l-71 53l-94 -52q-13 -7 -17 -7q-6 0 -12 11l-16 30q-7 13 -7 16q0 5 10 12l137 92q10 7 17 7q4 0 11 -7l89 -93q11 -11 11 -17zM507 493q0 -8 -1 -10l-73 -320q-10 -44 -10 -74h59q13 0 13 -9q0 -4 -2 -13l-12 -55
q-3 -12 -14 -12h-65q-48 0 -67 16t-19 56q0 13 1 22q-76 -111 -173 -111q-99 0 -99 101q0 37 10 81l55 240h-66q-14 0 -14 9q0 4 2 13l12 56q2 11 14 11h174q14 0 14 -9q0 -5 -2 -14l-63 -279q-10 -44 -10 -61q0 -40 40 -40q92 0 133 193l39 183q3 13 16 16l88 19l11 1
q9 0 9 -10z" />
    <glyph glyph-name="udieresis" unicode="&#xfc;" horiz-adv-x="537" 
d="M523 634q0 -29 -20.5 -49.5t-49.5 -20.5q-28 0 -48.5 20.5t-20.5 48.5q0 29 20.5 49.5t50.5 20.5q28 0 48 -20.5t20 -48.5zM331 634q0 -29 -20.5 -49.5t-49.5 -20.5q-28 0 -48.5 20.5t-20.5 48.5q0 29 20.5 49.5t50.5 20.5q28 0 48 -20.5t20 -48.5zM507 493q0 -8 -1 -10
l-73 -320q-10 -44 -10 -74h59q13 0 13 -9q0 -4 -2 -13l-12 -55q-3 -12 -14 -12h-65q-48 0 -67 16t-19 56q0 13 1 22q-76 -111 -173 -111q-99 0 -99 101q0 37 10 81l55 240h-66q-14 0 -14 9q0 4 2 13l12 56q2 11 14 11h174q14 0 14 -9q0 -5 -2 -14l-63 -279q-10 -44 -10 -61
q0 -40 40 -40q92 0 133 193l39 183q3 13 16 16l88 19l11 1q9 0 9 -10z" />
    <glyph glyph-name="yacute" unicode="&#xfd;" horiz-adv-x="463" 
d="M472 633q0 -7 -13 -12l-188 -68q-14 -5 -16 -5q-7 0 -11 12l-13 29q-5 11 -5 16q0 6 11 12l178 95q11 6 16 6q7 0 12 -12l24 -58q5 -12 5 -15zM503 478q0 -3 -4 -11l-201 -409q-80 -164 -114 -208q-52 -69 -141 -69q-35 0 -76.5 14.5t-41.5 26.5q0 4 3 9l36 63q5 8 10 8
q3 0 10 -3q40 -18 65 -18q56 0 85 57l32 62h-40q-12 0 -14 13l-46 392h-66q-13 0 -13 9q0 4 2 13l12 55q3 12 14 12h148q15 0 16 -14l18 -237q5 -69 8 -164q15 34 42 102q11 31 23 58l112 253q4 9 10 9q3 0 12 -1l88 -12q11 -1 11 -10z" />
    <glyph glyph-name="thorn" unicode="&#xfe;" horiz-adv-x="519" 
d="M489 366q0 -79 -26 -164.5t-66 -135.5q-66 -83 -162 -83q-50 0 -88 27l-26 -123h54q13 0 13 -9q0 -3 -2 -13l-11 -55q-2 -12 -15 -12h-228q-13 0 -13 10q0 3 2 12l12 56q2 11 14 11h53l158 741h-59q-14 0 -14 11q0 5 1 8l2 6l10 50q3 14 18 14h165q13 0 13 -10
q0 -4 -2 -13l-43 -202q-8 -36 -18 -63q65 82 140 82q56 0 87 -38.5t31 -106.5zM369 348q0 65 -47 65q-90 0 -122 -151l-35 -165q31 -19 64 -19q67 0 98 74q16 37 29 98t13 98z" />
    <glyph glyph-name="ydieresis" unicode="&#xff;" horiz-adv-x="463" 
d="M477 634q0 -29 -20.5 -49.5t-49.5 -20.5q-28 0 -48.5 20.5t-20.5 48.5q0 29 20.5 49.5t50.5 20.5q28 0 48 -20.5t20 -48.5zM285 634q0 -29 -20.5 -49.5t-49.5 -20.5q-28 0 -48.5 20.5t-20.5 48.5q0 29 20.5 49.5t50.5 20.5q28 0 48 -20.5t20 -48.5zM503 478q0 -3 -4 -11
l-201 -409q-80 -164 -114 -208q-52 -69 -141 -69q-35 0 -76.5 14.5t-41.5 26.5q0 4 3 9l36 63q5 8 10 8q3 0 10 -3q40 -18 65 -18q56 0 85 57l32 62h-40q-12 0 -14 13l-46 392h-66q-13 0 -13 9q0 4 2 13l12 55q3 12 14 12h148q15 0 16 -14l18 -237q5 -69 8 -164
q15 34 42 102q11 31 23 58l112 253q4 9 10 9q3 0 12 -1l88 -12q11 -1 11 -10z" />
    <glyph glyph-name="dotlessi" unicode="&#x131;" horiz-adv-x="278" 
d="M246 485l-1 -12l-82 -384h64q14 0 14 -9q0 -4 -2 -13l-12 -55q-3 -12 -14 -12h-80q-54 0 -73.5 18.5t-19.5 42.5q0 12 7 45l63 299h-76q-14 0 -14 9q0 3 2 12l12 56q3 12 14 12h185q14 0 13 -9z" />
    <glyph glyph-name="Lslash" unicode="&#x141;" 
d="M485 170q0 -2 -6 -16l-62 -142q-4 -12 -17 -12h-403q-15 0 -15 11q0 4 2 14l11 53q3 15 18 15h54l44 204l-63 -29q-4 -3 -13 -3q-8 0 -8 8q0 2 2 11l10 47q2 11 13 16l77 36l45 210h-52q-14 0 -14 11q0 5 2 14l12 54q3 14 17 14h233q14 0 14 -11q0 -5 -1 -8l-2 -6
l-11 -53q-3 -15 -18 -15h-53l-33 -153l122 56q9 3 12 3q8 0 8 -9l-1 -11l-10 -44q-3 -13 -15 -19l-134 -62l-53 -250h148l41 93q5 12 12 12q6 0 16 -5l58 -22q13 -5 13 -12z" />
    <glyph glyph-name="lslash" unicode="&#x142;" horiz-adv-x="296" 
d="M344 487q0 -9 -1 -12l-9 -43q-2 -10 -13 -15l-96 -44l-41 -192q-11 -52 -11 -63q0 -20 21 -20q10 0 28 4q7 3 10 3q6 0 7 -7l10 -69v-5q1 -2 1 -5q0 -10 -34 -19.5t-68 -9.5q-99 0 -99 83q0 35 15 107l29 139l-71 -32q-11 -5 -16 -5q-8 0 -8 9q0 6 2 12l9 41q1 12 13 17
l89 40l48 227h-59q-14 0 -14 11q0 5 1 8l1 6l11 50q3 14 18 14h165q14 0 14 -9q0 -2 -1 -6l-2 -8l-51 -239l79 36q11 5 16 5q7 0 7 -9z" />
    <glyph glyph-name="OE" unicode="&#x152;" horiz-adv-x="759" 
d="M812 675q0 -1 -3 -15l-32 -151q-3 -14 -18 -14h-62q-16 0 -16 11q0 6 2 15l13 61h-136l-37 -172h173q13 0 13 -11q0 -5 -2 -14l-14 -64q-3 -14 -18 -14h-174l-43 -203h140l17 81q3 14 18 14h62q17 0 17 -11q0 -6 -2 -15l-34 -158q-3 -15 -18 -15h-336q-45 -17 -94 -17
q-88 0 -134.5 53t-46.5 153q0 111 33.5 225.5t86.5 182.5q82 106 204 106q48 0 88 -17h336q17 0 17 -11zM430 571q-36 30 -69 30q-64 0 -114 -98q-30 -58 -49 -146.5t-19 -168.5q0 -103 64 -103q42 0 91 31z" />
    <glyph glyph-name="oe" unicode="&#x153;" horiz-adv-x="759" 
d="M733 379q0 -64 -42.5 -111t-116.5 -66q-54 -14 -146 -14q-2 -20 -2 -25q0 -82 81 -82q42 0 117 38q8 4 13 4q7 0 9 -8l25 -62q2 -5 2 -8q0 -6 -14 -14q-80 -48 -183 -48q-49 0 -78.5 13.5t-59.5 50.5q-76 -64 -153 -64q-76 0 -118 47.5t-42 132.5q0 141 80.5 244.5
t189.5 103.5q76 0 126 -68q71 68 165 68q68 0 107.5 -35.5t39.5 -96.5zM622 372q0 50 -55 50q-95 0 -123 -140q87 0 128 19q50 23 50 71zM329 342q0 71 -54 71q-46 0 -79 -63q-18 -35 -31.5 -93.5t-13.5 -101.5q0 -74 54 -74q48 0 80 66q18 37 31 95t13 100z" />
    <glyph glyph-name="Scaron" unicode="&#x160;" 
d="M519 843q0 -8 -10 -12l-147 -81q-15 -8 -17 -8q-3 0 -11 7l-93 83q-11 10 -11 16q0 5 7 12l26 31q8 9 14 9q7 0 12 -4l75 -42l102 42q12 5 17 5q6 0 12 -11l17 -31q7 -13 7 -16zM515 645q0 -9 -2 -18l-27 -127q-3 -14 -18 -14h-65q-17 0 -17 12l3 14l15 69q-42 14 -72 14
q-50 0 -80 -25t-30 -68q0 -36 28 -60q9 -8 89 -60q61 -38 86 -74.5t25 -88.5q0 -105 -73 -169t-194 -64q-97 0 -156 32q-23 12 -23 32q0 6 3 20l27 129q3 14 18 14h65q17 0 17 -11q0 -1 -3 -15l-16 -75q47 -17 86 -17q53 0 83.5 25.5t30.5 70.5q0 33 -17.5 54t-74.5 57
q-63 40 -87 62q-44 41 -44 118q0 102 68 160t187 58q75 0 145 -30q23 -10 23 -25z" />
    <glyph glyph-name="scaron" unicode="&#x161;" horiz-adv-x="407" 
d="M428 661q0 -6 -9 -12l-138 -92q-12 -8 -17 -8q-3 0 -11 8l-90 93q-10 10 -10 16q0 5 6 12l27 30l1 1q7 8 12 8t12 -5l71 -53l95 52q13 7 16 7q5 0 12 -11l16 -30q7 -10 7 -16zM382 469q0 -3 -1 -8l-21 -99q-3 -12 -14 -12h-65q-14 0 -14 9q0 5 2 14l10 43q-16 3 -28 3
q-79 0 -79 -61q0 -22 16 -35q7 -6 61 -32q63 -27 85 -54t22 -77q0 -82 -53 -129.5t-144 -47.5q-54 0 -111 16.5t-57 32.5q0 2 2 11l21 98q3 13 14 13h65q14 0 14 -9q0 -1 -1 -5l-1 -7l-11 -49q32 -9 59 -9q89 0 89 65q0 25 -19 39q-7 5 -42 21q-75 34 -98.5 60t-23.5 75
q0 79 53 127.5t138 48.5q47 0 89.5 -13.5t42.5 -28.5z" />
    <glyph glyph-name="Ydieresis" unicode="&#x178;" 
d="M540 821q0 -29 -21 -50t-51 -21q-29 0 -50 21t-21 50q0 30 21 51t51 21q29 0 50 -21t21 -51zM342 822q0 -30 -21 -51t-51 -21q-29 0 -50 21t-21 50q0 31 21 51.5t51 20.5q29 0 50 -21t21 -50zM622 675q0 -5 -2 -15l-11 -53q-3 -14 -18 -14h-46l-224 -312l-40 -188h66
q13 0 13 -11q0 -7 -2 -16l-11 -51q-3 -15 -18 -15h-259q-15 0 -15 10q0 6 2 15l12 53q3 15 18 15h67l40 189l-95 311h-44q-17 0 -17 11q0 2 3 16l11 51q3 15 17 15h124q16 0 20 -15l43 -161q14 -52 20 -112q40 74 64 108l119 170q7 10 20 10h126q17 0 17 -11z" />
    <glyph glyph-name="Zcaron" unicode="&#x17d;" horiz-adv-x="481" 
d="M510 843q0 -8 -10 -12l-147 -81q-15 -8 -17 -8q-3 0 -11 7l-93 83q-11 10 -11 16q0 5 7 12l26 31q8 9 14 9q7 0 12 -4l75 -42l102 42q12 5 17 5q6 0 12 -11l17 -31q7 -13 7 -16zM530 674q0 -5 -2 -14l-18 -85l-368 -458h181l36 81q5 12 12 12q2 0 13 -4l61 -23
q13 -5 13 -12q0 -5 -5 -16l-63 -143q-5 -12 -19 -12h-381q-17 0 -17 11l3 15l15 75l376 474h-160l-17 -81q-3 -14 -18 -14h-69q-17 0 -17 11q0 6 2 15l36 166q3 14 17 14h372q17 0 17 -12z" />
    <glyph glyph-name="zcaron" unicode="&#x17e;" horiz-adv-x="426" 
d="M438 661q0 -6 -9 -12l-138 -92q-12 -8 -17 -8q-3 0 -11 8l-90 93q-10 10 -10 16q0 5 6 12l27 30l1 1q7 8 12 8t12 -5l71 -53l95 52q13 7 16 7q5 0 12 -11l16 -30q7 -10 7 -16zM438 485q0 -3 -2 -12l-15 -69l-293 -305h153l36 56q6 9 11 9t14 -5l46 -27q10 -6 10 -12
q0 -4 -4 -10l-66 -101q-6 -9 -16 -9h-330q-14 0 -14 9q0 3 2 12l14 64l298 310h-122l-13 -61q-2 -11 -14 -11h-65q-13 0 -13 9q0 4 2 13l30 138q2 11 14 11h323q14 0 14 -9z" />
    <glyph glyph-name="florin" unicode="&#x192;" horiz-adv-x="519" 
d="M553 692q0 -4 -3 -10l-27 -69q-3 -7 -8 -7t-18 6q-22 10 -42 10q-30 0 -44.5 -17t-27.5 -68l-11 -43h106q17 0 17 -11q0 -6 -4 -17l-18 -49q-4 -12 -18 -12h-107l-103 -412q-26 -104 -70 -146q-54 -52 -140 -52q-81 0 -81 16q0 3 3 12l24 69q3 9 9 9h3q21 -3 32 -3
q46 0 65.5 21t37.5 90l102 396h-66q-17 0 -17 11q0 1 4 16l13 48q4 14 18 14h72l17 64q25 96 64 126q45 35 119 35q35 0 67 -8.5t32 -18.5z" />
    <glyph glyph-name="circumflex" unicode="&#x2c6;" 
d="M462 600q0 -4 -6 -11l-27 -30q-8 -9 -13 -9t-12 5l-71 53l-94 -52q-13 -7 -17 -7q-6 0 -12 11l-16 30q-7 13 -7 16q0 5 10 12l137 92q10 7 17 7q4 0 11 -7l89 -93q11 -11 11 -17z" />
    <glyph glyph-name="caron" unicode="&#x2c7;" 
d="M475 661q0 -6 -9 -12l-138 -92q-12 -8 -17 -8q-3 0 -11 8l-90 93q-10 10 -10 16q0 5 6 12l27 30l1 1q7 8 12 8t12 -5l71 -53l95 52q13 7 16 7q5 0 12 -11l16 -30q7 -10 7 -16z" />
    <glyph glyph-name="breve" unicode="&#x2d8;" 
d="M478 687q0 -13 -14 -42q-40 -83 -146 -83q-56 0 -87.5 30.5t-31.5 84.5q0 17 15 19l56 7q8 1 11 1q7 0 7 -9v-7q0 -47 39 -47q43 0 60 48q6 16 12 16q1 0 9 -1l60 -8q10 -1 10 -9z" />
    <glyph glyph-name="dotaccent" unicode="&#x2d9;" 
d="M406 634q0 -31 -22 -53.5t-54 -22.5q-31 0 -53.5 22.5t-22.5 53.5q0 32 22.5 54t54.5 22q31 0 53 -22.5t22 -53.5z" />
    <glyph glyph-name="ring" unicode="&#x2da;" 
d="M437 647q0 -43 -30.5 -74t-74.5 -31q-43 0 -73.5 31t-30.5 74q0 44 30.5 74.5t75.5 30.5q42 0 72.5 -31t30.5 -74zM374 647q0 17 -12.5 29.5t-29.5 12.5t-29.5 -12.5t-12.5 -30.5q0 -17 12.5 -29.5t29.5 -12.5t29.5 13t12.5 30z" />
    <glyph glyph-name="ogonek" unicode="&#x2db;" 
d="M362 10q-107 -77 -107 -116q0 -18 24 -18q21 0 45 11q9 4 11 4q3 0 6 -7l12 -44q1 -2 1 -6q0 -11 -36 -24t-69 -13q-82 0 -82 71q0 79 110 142h85z" />
    <glyph glyph-name="tilde" unicode="&#x2dc;" 
d="M482 654q0 -6 -18 -28q-44 -54 -96 -54q-31 0 -63 25q-15 12 -27 12q-21 0 -42 -30q-6 -8 -10 -8t-11 6l-34 28q-5 5 -5 9t21 31q38 50 91 50q30 0 66 -23q19 -12 28 -12q20 0 42 29q5 7 9 7t9 -5l32 -26q8 -7 8 -11z" />
    <glyph glyph-name="hungarumlaut" unicode="&#x2dd;" 
d="M522 676q0 -6 -8 -12l-138 -122q-7 -6 -12 -6t-12 7l-17 17q-8 8 -8 12t9 15l116 136q7 8 13 8q5 0 12 -7l38 -36q7 -7 7 -12zM364 676q0 -5 -8 -12l-138 -122q-7 -6 -12 -6t-12 7l-18 17q-7 7 -7 12q0 6 8 15l117 136q7 8 12 8q6 0 12 -7l38 -36q8 -8 8 -12z" />
    <glyph glyph-name="Delta" unicode="&#x394;" horiz-adv-x="612" 
d="M595 0h-574l276 672h22zM471 32l-198 491l-201 -491h399z" />
    <glyph glyph-name="Delta" unicode="&#x2206;" horiz-adv-x="612" 
d="M595 0h-574l276 672h22zM471 32l-198 491l-201 -491h399z" />
    <glyph glyph-name="Omega" unicode="&#x3a9;" horiz-adv-x="768" 
d="M718 408q0 -108 -72 -177q-65 -61 -176 -82v-59h123q50 0 67 17.5t21 68.5h23l-10 -176h-252v170q80 16 122 88q36 63 36 150q0 103 -56 170q-59 71 -160 71q-102 0 -161 -71q-55 -66 -55 -170q0 -88 36 -150q41 -72 122 -88v-170h-252l-10 176h23q3 -50 21 -68t67 -18
h123v59q-112 21 -176 82q-72 69 -72 177q0 131 105 204q91 63 229 63t229 -63q105 -73 105 -204z" />
    <glyph glyph-name="Omega" unicode="&#x2126;" horiz-adv-x="768" 
d="M718 408q0 -108 -72 -177q-65 -61 -176 -82v-59h123q50 0 67 17.5t21 68.5h23l-10 -176h-252v170q80 16 122 88q36 63 36 150q0 103 -56 170q-59 71 -160 71q-102 0 -161 -71q-55 -66 -55 -170q0 -88 36 -150q41 -72 122 -88v-170h-252l-10 176h23q3 -50 21 -68t67 -18
h123v59q-112 21 -176 82q-72 69 -72 177q0 131 105 204q91 63 229 63t229 -63q105 -73 105 -204z" />
    <glyph glyph-name="pi" unicode="&#x3c0;" horiz-adv-x="549" 
d="M526 469q0 -51 -23 -70.5t-75 -20.5h-24q-4 -132 -4 -196v-86q6 -63 39 -63q39 0 51 43q7 24 7 75h25q0 -161 -106 -161q-66 0 -87 53q-16 40 -16 151q0 -6 4 184h-137q0 -227 -13 -294q-18 -94 -80 -94q-46 0 -61 48q-9 28 -9 86h24q1 -52 37 -52q45 0 62 75
q14 62 16 231h-22q-77 0 -87 -52h-23q4 74 46 101q34 22 113 22h254q66 0 66 22v1h23v-3z" />
    <glyph glyph-name="endash" unicode="&#x2013;" horiz-adv-x="463" 
d="M429 296q0 -5 -2 -11l-15 -71q-3 -14 -18 -14h-344q-17 0 -17 11l3 15l14 68q3 14 18 14h344q17 0 17 -12z" />
    <glyph glyph-name="emdash" unicode="&#x2014;" horiz-adv-x="963" 
d="M930 294l-3 -15l-13 -63q-3 -14 -18 -14h-848q-17 0 -17 11q0 3 2 12l14 66q3 14 17 14h848q18 0 18 -11z" />
    <glyph glyph-name="quoteleft" unicode="&#x2018;" horiz-adv-x="296" 
d="M341 684q0 -5 -6 -17l-102 -202q-6 -11 -18 -11h-107q-17 0 -17 11q0 5 7 15l170 235q6 8 12 8q4 0 14 -6l37 -22q10 -6 10 -11z" />
    <glyph glyph-name="quoteright" unicode="&#x2019;" horiz-adv-x="296" 
d="M345 706q0 -5 -7 -15l-170 -235q-7 -9 -12 -9q-4 0 -15 7l-36 22q-10 6 -10 11t6 17l101 202q5 11 19 11h106q18 0 18 -11z" />
    <glyph glyph-name="quotesinglbase" unicode="&#x201a;" horiz-adv-x="296" 
d="M219 114q0 -5 -7 -15l-170 -235q-6 -8 -12 -8q-5 0 -15 6l-36 22q-10 6 -10 11t6 17l101 202q5 11 18 11h107q18 0 18 -11z" />
    <glyph glyph-name="quotedblleft" unicode="&#x201c;" horiz-adv-x="482" 
d="M526 684q0 -5 -6 -17l-102 -202q-6 -11 -18 -11h-107q-17 0 -17 11q0 5 7 15l170 235q6 8 12 8q5 0 15 -6l36 -22q10 -6 10 -11zM341 684q0 -5 -6 -17l-102 -202q-6 -11 -18 -11h-107q-17 0 -17 11q0 5 7 15l170 235q6 8 12 8q4 0 14 -6l37 -22q10 -6 10 -11z" />
    <glyph glyph-name="quotedblright" unicode="&#x201d;" horiz-adv-x="482" 
d="M530 706q0 -5 -7 -15l-170 -235q-7 -9 -12 -9q-2 0 -14 7l-37 22q-10 6 -10 11t6 17l102 202q6 11 18 11h107q17 0 17 -11zM345 706q0 -5 -7 -15l-170 -235q-7 -9 -12 -9q-4 0 -15 7l-36 22q-10 6 -10 11t6 17l101 202q5 11 19 11h106q18 0 18 -11z" />
    <glyph glyph-name="quotedblbase" unicode="&#x201e;" horiz-adv-x="482" 
d="M404 114q0 -5 -7 -15l-170 -235q-6 -8 -12 -8q-4 0 -14 6l-37 22q-10 6 -10 11t6 17l102 202q6 11 18 11h107q17 0 17 -11zM219 114q0 -5 -7 -15l-170 -235q-6 -8 -12 -8q-5 0 -15 6l-36 22q-10 6 -10 11t6 17l101 202q5 11 18 11h107q18 0 18 -11z" />
    <glyph glyph-name="dagger" unicode="&#x2020;" horiz-adv-x="518" 
d="M495 467q0 -6 -2 -15l-13 -58q-3 -14 -17 -14h-117l-122 -571q-3 -14 -18 -14h-85q-17 0 -17 11q0 1 3 15l119 559h-112q-17 0 -17 11q0 1 3 15l12 58q3 14 17 14h117l42 194q3 14 17 14h86q17 0 17 -11q0 -1 -3 -15l-39 -182h112q17 0 17 -11z" />
    <glyph glyph-name="daggerdbl" unicode="&#x2021;" horiz-adv-x="518" 
d="M495 467q0 -2 -1 -6l-2 -9l-12 -58q-3 -14 -18 -14h-117l-57 -265h112q17 0 17 -11q0 -6 -2 -15l-13 -59q-3 -14 -17 -14h-117l-44 -207q-3 -14 -18 -14h-85q-17 0 -17 11q0 6 2 15l42 195h-112q-17 0 -17 11l3 15l12 59q3 14 18 14h117l56 265h-112q-17 0 -17 11
q0 1 3 15l12 58q3 14 18 14h117l41 194q3 14 18 14h85q17 0 17 -11q0 -6 -2 -15l-39 -182h111q18 0 18 -11z" />
    <glyph glyph-name="bullet" unicode="&#x2022;" horiz-adv-x="686" 
d="M507 348q0 -58 -41.5 -100t-100.5 -42t-101 41.5t-42 100.5q0 60 41.5 101.5t102.5 41.5q58 0 99.5 -42t41.5 -101z" />
    <glyph glyph-name="ellipsis" unicode="&#x2026;" horiz-adv-x="889" 
d="M794 77q0 -37 -26.5 -64t-64.5 -27q-37 0 -64 27t-27 64q0 38 27 64.5t65 26.5q37 0 63.5 -27t26.5 -64zM497 77q0 -37 -26.5 -64t-64.5 -27q-37 0 -64 27t-27 64q0 38 27 64.5t65 26.5q37 0 63.5 -27t26.5 -64zM201 77q0 -37 -26.5 -64t-64.5 -27q-37 0 -64 27t-27 64
q0 38 27 64.5t65 26.5q37 0 63.5 -27t26.5 -64z" />
    <glyph glyph-name="perthousand" unicode="&#x2030;" horiz-adv-x="1185" 
d="M1114 217q0 -51 -20 -102t-52 -84q-45 -46 -117 -46q-56 0 -88.5 33t-32.5 89q0 52 19.5 103.5t52.5 83.5q47 46 119 46q55 0 87 -33.5t32 -89.5zM771 217q0 -114 -72 -186q-46 -46 -117 -46q-56 0 -88.5 33t-32.5 89q0 116 72 187q47 46 119 46q55 0 87 -33.5t32 -89.5z
M697 669q0 -7 -6 -17l-429 -682q-6 -10 -18 -10h-62q-17 0 -17 9q0 7 6 17l429 682q6 10 18 10h62q17 0 17 -9zM408 539q0 -114 -72 -186q-46 -46 -117 -46q-55 0 -87.5 33t-32.5 89q0 116 72 188q46 46 119 46q54 0 86 -33.5t32 -90.5zM1021 218q0 45 -39 45q-24 0 -40 -18
q-45 -51 -45 -140q0 -43 38 -43q25 0 41 18q45 51 45 138zM678 219q0 44 -39 44q-24 0 -40 -18q-19 -22 -32 -62t-13 -78q0 -43 39 -43q25 0 40 18q45 53 45 139zM315 542q0 44 -39 44q-24 0 -40 -18q-44 -49 -44 -139q0 -44 38 -44q42 0 67 61q18 46 18 96z" />
    <glyph glyph-name="guilsinglleft" unicode="&#x2039;" horiz-adv-x="352" 
d="M353 447q0 -4 -7 -12l-169 -192l80 -185q5 -12 5 -13q0 -7 -9 -11l-57 -27q-11 -5 -14 -5q-7 0 -12 10l-126 233q-4 6 -4 10q0 6 6 10l232 229q6 7 12 7q5 0 12 -6l42 -36q9 -8 9 -12z" />
    <glyph glyph-name="guilsinglright" unicode="&#x203a;" horiz-adv-x="352" 
d="M310 248q0 -4 -6 -10l-233 -229q-6 -7 -12 -7q-5 0 -11 6l-43 36q-8 7 -8 12q0 4 7 12l168 192l-80 185q-4 9 -4 13q0 6 8 11l58 27q11 5 13 5q8 0 13 -10l125 -233q5 -7 5 -10z" />
    <glyph glyph-name="fraction" unicode="&#x2044;" horiz-adv-x="130" 
d="M337 669q0 -7 -6 -17l-430 -682q-6 -10 -17 -10h-63q-17 0 -17 9q0 5 6 17l429 682q6 10 18 10h63q17 0 17 -9z" />
    <glyph glyph-name="trademark" unicode="&#x2122;" horiz-adv-x="759" 
d="M798 310q0 -15 -16 -15h-130q-15 0 -15 15v32q0 15 15 15h23l-3 171q0 -1 2 35q-8 -37 -15 -58l-38 -113q-4 -13 -18 -13h-27q-14 0 -18 13l-35 108q-7 22 -15 63l1 -63l-3 -143h22q15 0 15 -15v-32q0 -15 -15 -15h-126q-15 0 -15 15v32q0 15 15 15h26l14 267h-26
q-16 0 -16 15v32q0 15 15 15h100q14 0 18 -13l46 -139q6 -19 12 -59q6 34 14 59l48 139q4 13 18 13h97q15 0 15 -15v-32q0 -15 -15 -15h-26l14 -267h26q16 0 16 -15v-32zM368 568q0 -15 -15 -15h-32q-16 0 -16 15v46h-34v-257h33q18 0 18 -17v-28q0 -17 -18 -17h-154
q-17 0 -17 17v28q0 12 4 14.5t13 2.5h32v257h-33v-46q0 -15 -15 -15h-32q-16 0 -16 15v103q0 15 15 15h252q15 0 15 -15v-103z" />
    <glyph glyph-name="partialdiff" unicode="&#x2202;" horiz-adv-x="494" 
d="M436 367q0 -130 -47 -238q-61 -142 -175 -142q-74 0 -116 59q-36 51 -36 129q0 79 49 140q52 65 129 65q87 0 118 -93q12 45 12 148q0 167 -63 167q-17 0 -50 -35t-56 -35q-37 0 -37 32q0 34 36 54q30 17 66 17q93 0 137 -93q33 -71 33 -175zM341 224q0 125 -85 125
q-65 0 -97 -84q-23 -60 -23 -137q0 -119 84 -119q63 0 96 81q25 61 25 134z" />
    <glyph glyph-name="product" unicode="&#x220f;" horiz-adv-x="823" 
d="M797 -216h-264v32h84v896h-407v-896h84v-32h-264v32h88v896h-88v32h767v-32h-88v-896h88v-32z" />
    <glyph glyph-name="summation" unicode="&#x2211;" horiz-adv-x="713" 
d="M661 20q-10 -43 -53 -236h-572l398 436l-384 524h550l33 -230h-34q-33 108 -92.5 153t-171.5 45h-142l325 -446l-359 -394h212q109 0 158 25q61 30 97 123h35z" />
    <glyph glyph-name="minus" unicode="&#x2212;" horiz-adv-x="518" 
d="M486 223q0 -12 -4 -14.5t-13 -2.5h-421q-12 0 -14.5 4t-2.5 13v67q0 12 4 14.5t13 2.5h421q12 0 14.5 -4t2.5 -13v-67z" />
    <glyph glyph-name="periodcentered" unicode="&#x2219;" horiz-adv-x="257" 
d="M212 244q0 -36 -25.5 -61.5t-60.5 -25.5q-36 0 -61.5 25.5t-25.5 60.5q0 37 25.5 62t62.5 25q35 0 60 -25.5t25 -60.5z" />
    <glyph glyph-name="radical" unicode="&#x221a;" horiz-adv-x="549" 
d="M594 764h-57l-290 -784h-32l-156 431l-61 -22l-12 39l138 48l125 -346l252 681h93v-47z" />
    <glyph glyph-name="infinity" unicode="&#x221e;" horiz-adv-x="713" 
d="M659 300q0 -75 -34 -127q-40 -59 -111 -59q-93 0 -148 124q-65 -124 -157 -124q-71 0 -115 58q-41 53 -41 126q0 75 35 127q39 59 111 59q91 0 148 -124q63 124 157 124q71 0 115 -58q40 -53 40 -126zM635 303q0 54 -29 88.5t-81 34.5q-77 0 -149 -162q46 -86 142 -86
q53 0 85 36t32 89zM336 334q-47 86 -141 86q-53 0 -85 -36t-32 -89q0 -51 28 -87t78 -36q51 0 95 59q23 32 57 103z" />
    <glyph glyph-name="integral" unicode="&#x222b;" horiz-adv-x="274" 
d="M364 690q0 -48 -49 -48q-26 0 -43.5 37t-29.5 37q-38 0 -48 -109q-3 -31 -12 -309q-9 -272 -47 -362q-50 -117 -144 -117q-33 0 -57 17.5t-24 49.5q0 47 49 47q26 0 44 -36.5t30 -36.5q36 0 47 109q6 58 9 220q4 169 11 250q11 135 39 201q49 117 144 117q33 0 57 -17.5
t24 -49.5z" />
    <glyph glyph-name="approxequal" unicode="&#x2248;" horiz-adv-x="549" 
d="M531 297q-81 -54 -146 -54q-34 0 -105.5 23.5t-109.5 23.5q-60 0 -152 -65v69q86 56 157 56q38 0 84 -14q29 -10 88 -28q21 -5 43 -5q54 0 141 63v-69zM531 178q-79 -54 -146 -54q-32 0 -105.5 23.5t-114.5 23.5q-55 0 -147 -65v69q89 57 158 57q35 0 84 -15l81 -25
q26 -8 49 -8q53 0 141 64v-70z" />
    <glyph glyph-name="approxequal" unicode="&#x22f2;" horiz-adv-x="549" 
d="M531 297q-81 -54 -146 -54q-34 0 -105.5 23.5t-109.5 23.5q-60 0 -152 -65v69q86 56 157 56q38 0 84 -14q29 -10 88 -28q21 -5 43 -5q54 0 141 63v-69zM531 178q-79 -54 -146 -54q-32 0 -105.5 23.5t-114.5 23.5q-55 0 -147 -65v69q89 57 158 57q35 0 84 -15l81 -25
q26 -8 49 -8q53 0 141 64v-70z" />
    <glyph glyph-name="notequal" unicode="&#x2260;" horiz-adv-x="549" 
d="M501 139h-279l-117 -117l-39 40l77 77h-95v58h148l79 78h-227v58h279l117 117l40 -40l-78 -77h95v-58h-147l-79 -78h226v-58z" />
    <glyph glyph-name="lessequal" unicode="&#x2264;" horiz-adv-x="549" 
d="M503 127l-456 143v61l456 143v-64l-351 -110l351 -109v-64zM503 0h-457v62h457v-62z" />
    <glyph glyph-name="greaterequal" unicode="&#x2265;" horiz-adv-x="549" 
d="M503 270l-457 -143v64l351 109l-351 110v64l457 -143v-61zM503 0h-457v62h457v-62z" />
    <glyph glyph-name="lozenge" unicode="&#x25ca;" horiz-adv-x="494" 
d="M491 289l-244 -522l-244 522l244 518zM435 289l-188 399l-188 -399l188 -403z" />
    <glyph glyph-name="apple" unicode="&#xf000;" horiz-adv-x="790" 
d="M566 808q0 -52 -2 -62q-8 -42 -34 -68q-30 -30 -68 -53q-7 -4 -56 -9q-3 30 6 52.5t34 67.5q28 35 54 48q38 19 66 24zM733 213q-61 -131 -109 -174q-14 -12 -27 -24q-17 -11 -47 -16q-8 -1 -17 -1q-29 0 -55 12q-43 20 -69 20q-25 0 -69 -20q-27 -13 -53 -13q-9 0 -18 2
q-37 7 -63 30q-60 54 -109 160q-41 89 -41 190q0 23 3 41q20 108 86 160q51 40 132 40q27 0 69 -16t63 -16q22 0 47 11q36 14 42 16q18 5 44 5q81 0 132 -40q14 -11 38 -38q-47 -34 -67 -68q-27 -46 -26 -100q1 -56 33 -98q23 -31 43 -44q19 -9 38 -19z" />
    <glyph glyph-name="fi" unicode="&#xf001;" horiz-adv-x="574" 
d="M609 645q0 -34 -23.5 -58t-57.5 -24t-57.5 23.5t-23.5 57.5t23.5 57.5t57.5 23.5q33 0 57 -24t24 -56zM542 485q0 -6 -2 -12l-81 -384h64q14 0 14 -10q0 -2 -3 -12l-11 -55q-2 -12 -15 -12h-79q-53 0 -73 18t-20 44q0 16 6 44l64 299h-156l-80 -412q-20 -105 -62 -147
q-51 -51 -128 -51q-91 0 -91 17q0 4 2 11l21 71q3 7 7 7h4q16 -4 36 -4q42 0 61 22t32 89l80 397h-71q-13 0 -13 10l1 11l12 56q3 12 15 12h75l13 64q18 89 54 122q42 39 112 39q33 0 61 -8t28 -17q0 -3 -2 -9l-25 -70q-1 -7 -7 -7q-2 0 -4 1q-29 12 -45 12
q-23 0 -35.5 -17.5t-22.5 -66.5l-9 -43h260q13 0 13 -9z" />
    <glyph glyph-name="fl" unicode="&#xf002;" horiz-adv-x="574" 
d="M579 705q0 -7 -1 -9l-109 -515q-11 -52 -11 -62q0 -20 21 -20q11 0 28 4q9 2 10 2q6 0 6 -7l11 -74q1 -2 1 -5q0 -10 -34 -19.5t-68 -9.5q-99 0 -99 82q0 43 14 108l90 421q-55 27 -91 27q-29 0 -43.5 -18.5t-25.5 -72.5l-9 -43h86q12 0 12 -9q0 -2 -3 -12l-18 -58
q-3 -10 -14 -10h-82l-80 -412q-20 -105 -62 -147q-51 -51 -128 -51q-91 0 -91 17q0 4 2 11l21 71q3 7 7 7h4q16 -4 36 -4q42 0 61 22t32 89l80 397h-71q-13 0 -13 10l1 11l12 56q3 12 15 12h75l13 64q18 89 54 122q42 39 114 39q69 0 124 -32l103 25q9 1 11 1q9 0 9 -8z" />
    <glyph glyph-name="HT" horiz-adv-x="206" 
 />
    <glyph glyph-name="nonmarkingreturn" horiz-adv-x="206" 
 />
    <glyph glyph-name="glyph249" horiz-adv-x="206" 
 />
    </font>
</defs>
</svg>
